<svg xmlns="http://www.w3.org/2000/svg" viewBox="0 0 51.954 37.252" aria-labelledby="supportIcon"><title id="supportIcon">Support</title><path d="M8.75,14.5v22" style="fill:none;stroke:#c19678;stroke-linecap:round;stroke-linejoin:round;stroke-width:1.5px"/><line x1="8.75" y1="14.502" x2="4.75" y2="17.502" style="fill:none;stroke:#c19678;stroke-linecap:round;stroke-linejoin:round;stroke-width:1.5px"/><line x1="8.75" y1="14.502" x2="12.75" y2="17.502" style="fill:none;stroke:#c19678;stroke-linecap:round;stroke-linejoin:round;stroke-width:1.5px"/><path d="M25.977,14.5v22" style="fill:none;stroke:#c19678;stroke-linecap:round;stroke-linejoin:round;stroke-width:1.5px"/><line x1="25.977" y1="14.502" x2="21.977" y2="17.502" style="fill:none;stroke:#c19678;stroke-linecap:round;stroke-linejoin:round;stroke-width:1.5px"/><line x1="25.977" y1="14.502" x2="29.977" y2="17.502" style="fill:none;stroke:#c19678;stroke-linecap:round;stroke-linejoin:round;stroke-width:1.5px"/><path d="M43.2,14.5v22" style="fill:none;stroke:#c19678;stroke-linecap:round;stroke-linejoin:round;stroke-width:1.5px"/><line x1="43.204" y1="14.502" x2="39.204" y2="17.502" style="fill:none;stroke:#c19678;stroke-linecap:round;stroke-linejoin:round;stroke-width:1.5px"/><line x1="43.204" y1="14.502" x2="47.204" y2="17.502" style="fill:none;stroke:#c19678;stroke-linecap:round;stroke-linejoin:round;stroke-width:1.5px"/><path d="M.75,1.711A14.7,14.7,0,0,1,7.057.5a14.693,14.693,0,0,1,6.306,1.211" style="fill:none;stroke:#c19678;stroke-linecap:round;stroke-linejoin:round"/><path d="M13.363,1.711A14.7,14.7,0,0,1,19.67.5a14.7,14.7,0,0,1,6.307,1.211" style="fill:none;stroke:#c19678;stroke-linecap:round;stroke-linejoin:round"/><path d="M25.977,1.711A14.693,14.693,0,0,1,32.283.5,14.694,14.694,0,0,1,38.59,1.711" style="fill:none;stroke:#c19678;stroke-linecap:round;stroke-linejoin:round"/><path d="M38.59,1.711A14.7,14.7,0,0,1,44.9.5,14.7,14.7,0,0,1,51.2,1.711" style="fill:none;stroke:#c19678;stroke-linecap:round;stroke-linejoin:round"/><line x1="0.75" y1="9.107" x2="51.204" y2="9.107" style="fill:none;stroke:#c19678;stroke-linecap:round;stroke-linejoin:round;stroke-width:1.5px"/></svg>