<svg xmlns="http://www.w3.org/2000/svg" viewBox="0 0 99.4 26.005" aria-labelledby="forbesLogo"><title id="forbes Logo">Forbes</title><path d="M35.237,15.042c-.374-3.17-1.718-5.491-3.937-6.8a9.936,9.936,0,0,0-8.875-.2A8.627,8.627,0,0,0,18.234,13a12.755,12.755,0,0,0,0,7.344A8,8,0,0,0,20.287,23.8a7.768,7.768,0,0,0,4.405,2.132,19.223,19.223,0,0,0,3.219,0,10.1,10.1,0,0,0,1.166-.255A8.5,8.5,0,0,0,35.1,18.9,16.659,16.659,0,0,0,35.237,15.042Zm-6.49,8.127a2.9,2.9,0,0,1-1.463,1.372,2.065,2.065,0,0,1-1.476-.065c-1.18-.53-2.023-2.285-2.416-5.112a35.877,35.877,0,0,1,0-6.132c.383-3.134,1.35-4.725,2.875-4.728a1.948,1.948,0,0,1,1.605.708c1.279,1.289,1.885,3.749,1.876,7.615C29.741,19.912,29.434,21.855,28.747,23.169Zm33-15.713a6.335,6.335,0,0,0-1.621-.076,7.19,7.19,0,0,0-3,.653c-.3.141-.572.256-.592.256s-.018-1.864.007-4.144A28.674,28.674,0,0,0,56.5,0c-.233,0-7.53,1.388-7.61,1.451-.059.048-.085.2-.071.436.024.406-.025.374.865.574a2.468,2.468,0,0,1,.7.258A2.349,2.349,0,0,1,51.1,4.044c.135.518.153.888.216,4.388.063,3.573.051,7.247-.048,13.977l-.04,2.8.523.119c.757.172,2.923.533,3.632.605h0a26.732,26.732,0,0,0,4.235-.026,8.647,8.647,0,0,0,7.053-5.427,13.181,13.181,0,0,0,.717-2.909,17.158,17.158,0,0,0-.132-4.025c-.716-3.267-2.756-5.52-5.506-6.09Zm.178,11.3a10.17,10.17,0,0,1-1.759,4.727,3.687,3.687,0,0,1-1.6,1.135,5.4,5.4,0,0,1-1.707.056h0a.641.641,0,0,1-.344-.125c-.122-.148-.255-9.847-.173-12.684l.065-2.251.571-.165a3.543,3.543,0,0,1,2.4.1c1.292.613,2.141,2.126,2.582,4.6a23.609,23.609,0,0,1-.032,4.6ZM80.906,7.8a8.806,8.806,0,0,0-7.211.169,8.384,8.384,0,0,0-4.354,5.144,10.2,10.2,0,0,0-.51,3.895,10.386,10.386,0,0,0,.18,2.037,8.488,8.488,0,0,0,6.908,6.849h0a13.388,13.388,0,0,0,3.341.006,9.146,9.146,0,0,0,3.24-1.253c1-.675,2.025-1.69,2.025-2,0-.192-.343-.635-.493-.635a2.461,2.461,0,0,0-.616.322,5.461,5.461,0,0,1-3.213.892,5.111,5.111,0,0,1-4.073-1.6,4.574,4.574,0,0,1-.976-1.293,8.893,8.893,0,0,1-.933-3.84l-.02-.624,5.287-.019,5.287-.018.024-.357a9.48,9.48,0,0,0-.057-1.143C84.415,11.116,83.115,8.9,80.906,7.8Zm-2.744,6.449h0c-.684.023-1.846.053-2.583.064l-1.339.022v-.289a8.846,8.846,0,0,1,.1-.932c.446-2.877,1.52-4.6,2.863-4.606,1.236,0,2,1.7,2.155,4.814l.045.883Zm21.212,5.928a4.456,4.456,0,0,1-.263,1.689,5.952,5.952,0,0,1-4.5,3.877,7.506,7.506,0,0,1-2.47.233c-.9.01-1.772,0-1.929-.012a19.71,19.71,0,0,1-3.973-.87l-.329-.142-.045-1.632c-.025-.9-.054-2.1-.064-2.667l-.018-1.035.2-.095a1.51,1.51,0,0,1,.487-.108l.29-.014.247.608c.962,2.369,2.091,3.646,3.566,4.035a4.71,4.71,0,0,0,2.033,0,2.522,2.522,0,0,0,1.812-2.5c.007-1.429-.779-2.116-3.746-3.275a7.749,7.749,0,0,1-3.25-1.869,4.519,4.519,0,0,1-1.293-3.139,5.259,5.259,0,0,1,1.536-4.137A6.871,6.871,0,0,1,92.249,7.14a14.766,14.766,0,0,1,5.862.81l.257.109.046,1.455c.025.8.052,1.873.058,2.383l.012.929-.345.129c-.547.2-.583.177-.888-.629C96.4,10.067,95.408,9,93.864,8.671a2.313,2.313,0,0,0-2.3.626,2.27,2.27,0,0,0-.662,1.61,1.979,1.979,0,0,0,.563,1.7,9.554,9.554,0,0,0,3.421,1.973c2.317.968,3.423,1.79,4.024,2.992a4.747,4.747,0,0,1,.464,2.6ZM9.408,2.806c-.072.7-.187,5.228-.186,7.359V12.29h.661c.364,0,1.081-.029,1.593-.06a3.185,3.185,0,0,0,1.322-.236A3.4,3.4,0,0,0,14.459,9.5l.17-.679.583-.021.584-.02v8.585l-.584-.021-.583-.021-.166-.678a3.537,3.537,0,0,0-1.65-2.516,10.317,10.317,0,0,0-2.823-.287l-.768-.023v1.613c0,1.757.1,4.134.221,5.425.172,1.8.632,2.792,1.458,3.152a6.272,6.272,0,0,0,1.108.248,6.777,6.777,0,0,1,.947.187c.174.091.184,1.022.012,1.088-.136.052-12.744.048-12.873,0h0C.036,25.508.006,25.33.006,25c0-.592-.038-.566,1.107-.778a2.073,2.073,0,0,0,1.581-.838c.752-.986.914-2.885.916-10.7,0-7.341-.14-8.885-.918-10.019a2.452,2.452,0,0,0-1.9-.894L.041,1.68.021,1.1,0,.509.235.467C.364.444,4.906.434,10.328.446l9.858.02.046.286c.025.157.067,1.769.093,3.583l.046,3.3-.508.154c-.765.232-.761.235-1.105-.676-.845-2.236-1.815-3.525-3.141-4.176-.915-.449-1.338-.5-3.922-.5H9.447ZM50.09,7.717c0,.216-1.734,4.8-1.83,4.837a2.866,2.866,0,0,1-.753-.288,4.978,4.978,0,0,0-2.182-.546,3.44,3.44,0,0,0-2.222.733c-.164.176-.165.186-.206,2.811-.04,2.6.047,5.771.193,7.046.124,1.087.413,1.621,1.009,1.871a10.693,10.693,0,0,0,1.868.255A1.4,1.4,0,0,1,46,24.99l-.021.554-5.287.017c-2.908.009-5.329-.01-5.38-.042h0c-.065-.042-.086-.206-.071-.553l.021-.494.25-.053c.138-.029.433-.087.657-.129a1.57,1.57,0,0,0,1.313-1.24,36.907,36.907,0,0,0,.266-6.366c.006-4.707-.093-5.819-.569-6.449-.257-.342-.443-.439-1.069-.559-.309-.059-.635-.123-.723-.141-.143-.03-.161-.077-.161-.427s.022-.4.161-.459c.214-.088,7.292-1.5,7.518-1.5h.176L43.05,8.2c-.019.58-.05,1.424-.068,1.876l-.033.821.257-.462a6.4,6.4,0,0,1,2.965-2.96,4.021,4.021,0,0,1,1.951-.4C49.106,7.075,50.09,7.4,50.09,7.717Z" style="fill:#fff"/></svg>