<svg xmlns="http://www.w3.org/2000/svg" viewBox="0 0 72 24.949" aria-labelledby="incLogo"><title id="incLogo">Inc</title><rect width="72" height="24.949" style="fill:none"/><polygon points="0 5.745 3.175 5.745 3.175 19.172 0 19.172 0 24.49 16.985 24.49 16.985 19.172 13.778 19.172 13.778 5.745 16.985 5.745 16.985 0 0 0 0 5.745" style="fill:#fff"/><path d="M43.135,19.172V12.114c0-4.5-3.273-6.139-7.331-6.139a8.413,8.413,0,0,0-6.971,2.987,3.629,3.629,0,0,1-.491.525V5.778H17.869v5.351h2.389v8.043H17.869v5.351H31.156V19.172h-2.52V14.543a3.334,3.334,0,0,1,3.437-3.414c1.538,0,2.749.755,2.749,2.429v5.581H32.367V24.49H45.36V19.237c0-.032-.033-.065-.033-.1H43.135Z" style="fill:#fff"/><path d="M66.5,17.6H59.367a2.79,2.79,0,0,1-3.043,2.889c-3.077,0-3.339-2.594-3.339-5.056v-.065h0c0-2.462.23-5.056,3.339-5.056,2.421,0,2.847,2.1,2.912,4.1l7.168-.788c-.753-7.321-7.953-7.781-9.753-7.781h-.393c-5.923,0-11.749,2.922-11.749,9.553a8.981,8.981,0,0,0,.753,3.743H45.3v.1c1.767,3.94,6.349,5.712,10.963,5.712,3.764,0,9.033-.919,10.211-6.729Z" style="fill:#fff"/><ellipse cx="68.956" cy="21.568" rx="3.011" ry="3.02" style="fill:#fff"/></svg>