<svg xmlns="http://www.w3.org/2000/svg" viewBox="0 0 100.5 42" aria-labelledby="businessIntelGroupLogo"><title id="businessIntelGroupLogo">Buniness Intel Group</title><path d="M.71.19H6.85a4.21,4.21,0,0,1,2.7.69A3.56,3.56,0,0,1,10.89,3.7,2.88,2.88,0,0,1,8.77,6.6v0a3,3,0,0,1,2.43,3,3.92,3.92,0,0,1-1.28,3.11,5.65,5.65,0,0,1-3.46.76H.71ZM5.8,5.32a1.49,1.49,0,0,0,1.08-.26,1.23,1.23,0,0,0,.37-.87c0-1-.77-1.13-1.5-1.13H4.25V5.32Zm.11,5.25A1.61,1.61,0,0,0,7,10.32a1.23,1.23,0,0,0,.46-.94,1.2,1.2,0,0,0-.61-1.05,2.51,2.51,0,0,0-1.11-.17H4.25v2.41Zm12.09,3V11.92h0a2.78,2.78,0,0,1-2.83,1.83A2.88,2.88,0,0,1,13,13a3.41,3.41,0,0,1-.73-2.52V3.6h3.62v6c0,.64,0,1.32.81,1.32a1,1,0,0,0,.88-.56,2.33,2.33,0,0,0,.18-1.05V3.6h3.62v10Zm7.31-3.23c.2.95,1.21,1.07,2,1.07.36,0,1.39,0,1.39-.62s-1.25-.61-1.58-.65c-1.95-.29-4.28-.7-4.28-3.34a3.06,3.06,0,0,1,1.45-2.61,5.24,5.24,0,0,1,3-.76A4.16,4.16,0,0,1,31.52,6l-2.77.56a1.62,1.62,0,0,0-1.63-.87c-.65,0-1.17.23-1.17.52s.26.43.55.51A15.39,15.39,0,0,0,28.08,7a5.83,5.83,0,0,1,2.54.74,2.93,2.93,0,0,1,1.32,2.53c0,2.75-2.73,3.53-4.83,3.53s-4-.72-4.71-3ZM36.45,2.65H32.82V0h3.63Zm0,10.9H32.82V3.6h3.63Zm1.49-10h3.42V5h0a2.65,2.65,0,0,1,2.65-1.59,3,3,0,0,1,2.43,1,5.08,5.08,0,0,1,.59,3v6.13H43.45v-6c0-.61,0-1.45-.79-1.45-1,0-1.1.92-1.1,1.74v5.74H37.94ZM58.1,10.22a4.59,4.59,0,0,1-4.8,3.53,5.33,5.33,0,0,1-3.77-1.31A5.09,5.09,0,0,1,48,8.7,5.65,5.65,0,0,1,49.37,5a5,5,0,0,1,3.71-1.54c3.12,0,5,2.14,5,5.41v.53H51.82c0,1.07.33,1.85,1.43,1.85A1.28,1.28,0,0,0,54.68,10ZM54.44,7.4c0-1-.29-1.71-1.32-1.71s-1.3.79-1.3,1.71Zm7,2.92c.2.95,1.21,1.07,2,1.07.37,0,1.39,0,1.39-.62s-1.24-.61-1.57-.65c-2-.29-4.28-.7-4.28-3.34a3.07,3.07,0,0,1,1.44-2.61,5.27,5.27,0,0,1,3-.76A4.15,4.15,0,0,1,67.59,6l-2.76.56a1.62,1.62,0,0,0-1.63-.87c-.66,0-1.17.23-1.17.52s.26.43.55.51A15.19,15.19,0,0,0,64.15,7a5.92,5.92,0,0,1,2.55.74A2.92,2.92,0,0,1,68,10.22c0,2.75-2.72,3.53-4.83,3.53s-4-.72-4.7-3Zm9.79,0c.2.95,1.2,1.07,2,1.07.37,0,1.39,0,1.39-.62s-1.24-.61-1.57-.65c-2-.29-4.28-.7-4.28-3.34a3.05,3.05,0,0,1,1.44-2.61,5.26,5.26,0,0,1,3-.76A4.15,4.15,0,0,1,77.38,6l-2.76.56A1.62,1.62,0,0,0,73,5.69c-.66,0-1.17.23-1.17.52s.25.43.55.51A15.19,15.19,0,0,0,73.94,7a5.83,5.83,0,0,1,2.54.74,2.93,2.93,0,0,1,1.32,2.53c0,2.75-2.72,3.53-4.83,3.53s-4-.72-4.7-3ZM4.65,30H.77V16.63H4.65ZM6.16,20H9.58v1.4h0a2.66,2.66,0,0,1,2.65-1.6,3,3,0,0,1,2.43,1,5,5,0,0,1,.59,3V30H11.67V24c0-.6,0-1.44-.79-1.44-1,0-1.1.92-1.1,1.73V30H6.16Zm14.6,0h1.87v2.53H20.8V26c0,.72-.07,1.28.79,1.28a4.26,4.26,0,0,0,1-.17v2.78a11.68,11.68,0,0,1-2.51.33,2.89,2.89,0,0,1-2.25-1,3.94,3.94,0,0,1-.69-2.84V22.57H15.82V20h1.52l.28-3.17,3.14-.12Zm12.48,6.62a4.59,4.59,0,0,1-4.8,3.52,5.31,5.31,0,0,1-3.77-1.3,5.11,5.11,0,0,1-1.52-3.74,5.7,5.7,0,0,1,1.36-3.76,5,5,0,0,1,3.71-1.54c3.11,0,5,2.15,5,5.42v.52H27c0,1.07.33,1.85,1.43,1.85a1.28,1.28,0,0,0,1.43-1.2Zm-3.66-2.82c0-1-.29-1.72-1.32-1.72s-1.3.8-1.3,1.72ZM38,30H34.36V16.63H38Zm5.16,0H39.52V16.63h3.62Zm5.14-10.91H44.65V16.44h3.63Zm0,10.91H44.65V20h3.63Zm3-4.73A2.33,2.33,0,0,1,49.76,23c0-2.57,2.67-3.12,4.57-3.12a6.37,6.37,0,0,1,1.74.2c.2-1.44.88-2.34,2.33-2.34a9.91,9.91,0,0,1,1.29.08l-.09,2.67a4.78,4.78,0,0,0-.89,0c-.33,0-.85,0-1,.37a2.94,2.94,0,0,1,1,2.24c0,2.49-2.39,3-4.28,3-.31,0-.53,0-.84,0-.57,0-.88.13-.88.48s.31.43,1,.47l2.56.12a3.88,3.88,0,0,1,2.32.68,3.15,3.15,0,0,1,1.08,2.47A2.85,2.85,0,0,1,57.61,33a11.34,11.34,0,0,1-3.55.43C52.5,33.42,49,33.3,49,31A2,2,0,0,1,50.34,29a1.92,1.92,0,0,1-.86-1.57A2.46,2.46,0,0,1,51.28,25.26Zm1.48,5.95a6.87,6.87,0,0,0,1.81.18c.55,0,1.9.1,1.9-.78,0-.66-.62-.62-1.08-.64-.82,0-1.63-.12-2.45-.12-.42,0-.91,0-.91.63S52.37,31.12,52.76,31.21ZM55.39,23c0-.76-.36-1.25-1.11-1.25S53.2,22.28,53.2,23a1.1,1.1,0,1,0,2.19,0Zm14.26,3.64a4.59,4.59,0,0,1-4.8,3.52,5.32,5.32,0,0,1-3.77-1.3,5.06,5.06,0,0,1-1.51-3.74,5.64,5.64,0,0,1,1.35-3.76,5,5,0,0,1,3.71-1.54c3.12,0,5,2.15,5,5.42v.52H63.37c0,1.07.33,1.85,1.43,1.85a1.28,1.28,0,0,0,1.43-1.2ZM66,23.84c0-1-.29-1.72-1.32-1.72s-1.3.8-1.3,1.72ZM70.66,20h3.42v1.4h0a2.67,2.67,0,0,1,2.66-1.6,3,3,0,0,1,2.43,1,5.12,5.12,0,0,1,.58,3V30H76.17V24c0-.6,0-1.44-.79-1.44-1,0-1.09.92-1.09,1.73V30H70.66ZM90,26.25a4.18,4.18,0,0,1-4.43,3.93,4.39,4.39,0,0,1-3.44-1.36A5.43,5.43,0,0,1,80.73,25c0-3,1.94-5.2,4.82-5.2A4.24,4.24,0,0,1,90,23.78l-3.21.29V24c-.13-.68-.28-1.46-1.08-1.46-1.16,0-1.16,1.62-1.16,2.49s0,2.46,1.21,2.46c.79,0,1.08-.76,1.17-1.48Zm10.51.41a4.59,4.59,0,0,1-4.8,3.52,5.31,5.31,0,0,1-3.77-1.3,5.11,5.11,0,0,1-1.52-3.74,5.7,5.7,0,0,1,1.36-3.76,5,5,0,0,1,3.71-1.54c3.11,0,5,2.15,5,5.42v.52H94.22c0,1.07.33,1.85,1.43,1.85a1.28,1.28,0,0,0,1.43-1.2Zm-3.66-2.82c0-1-.3-1.72-1.32-1.72s-1.3.8-1.3,1.72Zm-89.42,18H6.19L5.86,41a2.61,2.61,0,0,1-2.21,1C1.27,42,0,40.05,0,37.68a5.38,5.38,0,0,1,1-3.23,3.37,3.37,0,0,1,3-1.38,3.32,3.32,0,0,1,3.51,3L5,36.35C4.9,35.65,4.62,35,3.86,35c-1.15,0-1.22,1.65-1.22,2.53a4.49,4.49,0,0,0,.21,1.6A1.2,1.2,0,0,0,4,40a1.05,1.05,0,0,0,1.12-1.1H3.74V37H7.42Zm3.56,0H8.45V33.2H12.6a3.61,3.61,0,0,1,2.1.53,2.41,2.41,0,0,1,1,2.07,2.3,2.3,0,0,1-1.44,2.29l1.48,3.78H13l-1.18-3.31H11Zm0-5.17h.92c.54,0,1.2-.09,1.2-.83a.81.81,0,0,0-.4-.71,1.54,1.54,0,0,0-.71-.11H11Zm12.88.86C23.86,40,22.44,42,20,42s-3.9-2-3.9-4.44,1.41-4.49,3.9-4.49S23.86,35,23.86,37.56Zm-5.12,0c0,.84.09,2.44,1.23,2.44s1.22-1.6,1.22-2.44S21.07,35,20,35,18.74,36.73,18.74,37.57Zm12.52,1.21a2.9,2.9,0,0,1-.89,2.49A3.64,3.64,0,0,1,28,42a4.44,4.44,0,0,1-2.36-.62,2.67,2.67,0,0,1-1-2.47V33.2h2.54v5.41a1.84,1.84,0,0,0,.16,1,1.08,1.08,0,0,0,.89.39,1.31,1.31,0,0,0,.85-.29,1.42,1.42,0,0,0,.29-1.15V33.2h2ZM35,41.87H32.44V33.2h3.32a4.55,4.55,0,0,1,2.39.45,2.69,2.69,0,0,1,1.22,2.28,2.73,2.73,0,0,1-.91,2.12,3.26,3.26,0,0,1-2.22.68H35Zm.65-5c.57,0,1.26,0,1.26-.85s-.62-.84-1.19-.84H35v1.69Zm5.1-1.81V33.69h-.41V33.5h1v.19h-.4v1.37Zm1.62-.31.42-1.25h.33v1.56h-.23V33.7h0l-.46,1.36h-.16l-.47-1.36h0v1.36h-.18V33.5h.32Z" fill="#6b6257"/></svg>