<?xml version="1.0" encoding="utf-8"?>
<!-- Generator: Adobe Illustrator 22.1.0, SVG Export Plug-In . SVG Version: 6.00 Build 0)  -->
<svg version="1.1" id="Layer_1" xmlns="http://www.w3.org/2000/svg" xmlns:xlink="http://www.w3.org/1999/xlink" x="0px" y="0px"
	 viewBox="0 0 99.4 26" style="enable-background:new 0 0 99.4 26;" xml:space="preserve" aria-labelledby="forbesLogo">
<title id="forbesLogo">Forbes</title>
<style type="text/css">
	.st0{fill:#6b6257;}
</style>
<g id="Layer_2_1_">
	<g id="Layer_1-2">
		<path class="st0" d="M35.2,15c-0.4-3.2-1.7-5.5-3.9-6.8c-2.8-1.5-6-1.5-8.9-0.2c-2,1-3.5,2.8-4.2,5c-0.7,2.4-0.7,4.9,0,7.3
			c0.4,1.3,1.1,2.5,2.1,3.5c1.2,1.2,2.7,1.9,4.4,2.1c1.1,0.1,2.1,0.1,3.2,0c0.4-0.1,0.8-0.1,1.2-0.3c3.1-0.9,5.5-3.5,6-6.8
			C35.3,17.6,35.3,16.3,35.2,15z M28.7,23.2c-0.3,0.6-0.8,1.1-1.5,1.4c-0.5,0.2-1,0.1-1.5-0.1c-1.2-0.5-2-2.3-2.4-5.1
			c-0.2-2-0.2-4.1,0-6.1c0.4-3.1,1.4-4.7,2.9-4.7c0.6,0,1.2,0.2,1.6,0.7c1.3,1.3,1.9,3.7,1.9,7.6C29.7,19.9,29.4,21.9,28.7,23.2z
			M61.7,7.5c-0.5-0.1-1.1-0.1-1.6-0.1c-1,0-2.1,0.2-3,0.7c-0.3,0.1-0.6,0.3-0.6,0.3s0-1.9,0-4.1c0.1-1.4,0.1-2.8,0-4.1
			c-0.2,0-7.5,1.4-7.6,1.5c-0.1,0-0.1,0.2-0.1,0.4c0,0.4,0,0.4,0.9,0.6c0.2,0,0.5,0.1,0.7,0.3C50.8,3.1,51,3.5,51.1,4
			c0.1,0.5,0.2,0.9,0.2,4.4c0.1,3.6,0.1,7.2,0,14l0,2.8l0.5,0.1c0.8,0.2,2.9,0.5,3.6,0.6l0,0c1.4,0.1,2.8,0.1,4.2,0
			c3.2-0.4,5.9-2.5,7.1-5.4c0.3-0.9,0.6-1.9,0.7-2.9c0.1-1.3,0.1-2.7-0.1-4C66.5,10.3,64.5,8,61.7,7.5L61.7,7.5z M61.9,18.8
			c-0.2,1.7-0.8,3.3-1.8,4.7c-0.4,0.5-1,0.9-1.6,1.1c-0.6,0.1-1.1,0.1-1.7,0.1l0,0c-0.1,0-0.2-0.1-0.3-0.1
			c-0.1-0.1-0.3-9.8-0.2-12.7l0.1-2.3L57,9.4c0.8-0.2,1.6-0.2,2.4,0.1c1.3,0.6,2.1,2.1,2.6,4.6C62.1,15.7,62.1,17.2,61.9,18.8
			L61.9,18.8z M80.9,7.8c-2.3-1-4.9-0.9-7.2,0.2c-2.1,1-3.7,2.9-4.4,5.1c-0.4,1.3-0.6,2.6-0.5,3.9c0,0.7,0.1,1.4,0.2,2
			c0.6,3.5,3.4,6.2,6.9,6.8l0,0c1.1,0.1,2.2,0.1,3.3,0c1.2-0.2,2.2-0.6,3.2-1.3c1-0.7,2-1.7,2-2c0-0.2-0.3-0.6-0.5-0.6
			c-0.2,0.1-0.4,0.2-0.6,0.3c-1,0.6-2.1,0.9-3.2,0.9c-1.5,0.1-3-0.5-4.1-1.6c-0.4-0.4-0.7-0.8-1-1.3c-0.6-1.2-0.9-2.5-0.9-3.8l0-0.6
			l5.3,0l5.3,0l0-0.4c0-0.4,0-0.8-0.1-1.1C84.4,11.1,83.1,8.9,80.9,7.8z M78.2,14.2L78.2,14.2c-0.7,0-1.8,0.1-2.6,0.1l-1.3,0V14
			c0-0.3,0.1-0.6,0.1-0.9c0.4-2.9,1.5-4.6,2.9-4.6c1.2,0,2,1.7,2.2,4.8l0,0.9L78.2,14.2z M99.4,20.2c0,0.6-0.1,1.1-0.3,1.7
			c-0.7,2-2.4,3.5-4.5,3.9C93.8,26,93,26,92.1,26c-0.9,0-1.8,0-1.9,0c-1.4-0.2-2.7-0.4-4-0.9L85.9,25l0-1.6c0-0.9-0.1-2.1-0.1-2.7
			l0-1l0.2-0.1c0.2-0.1,0.3-0.1,0.5-0.1l0.3,0L87,20c1,2.4,2.1,3.6,3.6,4c0.7,0.1,1.4,0.1,2,0c1.1-0.3,1.8-1.4,1.8-2.5
			c0-1.4-0.8-2.1-3.7-3.3c-1.2-0.3-2.3-1-3.2-1.9c-0.8-0.8-1.3-2-1.3-3.1c-0.1-1.5,0.4-3,1.5-4.1c1.2-1.2,2.9-1.9,4.6-2
			c2-0.1,4,0.1,5.9,0.8l0.3,0.1l0,1.5c0,0.8,0.1,1.9,0.1,2.4l0,0.9L98.1,13c-0.5,0.2-0.6,0.2-0.9-0.6c-0.9-2.3-1.8-3.3-3.4-3.7
			c-0.8-0.2-1.7,0-2.3,0.6c-0.4,0.4-0.7,1-0.7,1.6c-0.1,0.6,0.1,1.3,0.6,1.7c1,0.9,2.2,1.6,3.4,2c2.3,1,3.4,1.8,4,3
			C99.3,18.4,99.5,19.3,99.4,20.2L99.4,20.2z M9.4,2.8C9.3,3.5,9.2,8,9.2,10.2v2.1h0.7c0.4,0,1.1,0,1.6-0.1c0.5,0,0.9-0.1,1.3-0.2
			c0.9-0.5,1.5-1.5,1.7-2.5l0.2-0.7l0.6,0l0.6,0v8.6l-0.6,0l-0.6,0l-0.2-0.7c-0.1-1-0.8-2-1.6-2.5c-0.9-0.2-1.9-0.3-2.8-0.3l-0.8,0
			v1.6c0,1.8,0.1,4.1,0.2,5.4c0.2,1.8,0.6,2.8,1.5,3.2c0.4,0.1,0.7,0.2,1.1,0.2c0.3,0,0.6,0.1,0.9,0.2c0.2,0.1,0.2,1,0,1.1
			c-0.1,0.1-12.7,0-12.9,0l0,0C0,25.5,0,25.3,0,25c0-0.6,0-0.6,1.1-0.8c0.6,0,1.2-0.3,1.6-0.8c0.8-1,0.9-2.9,0.9-10.7
			c0-7.3-0.1-8.9-0.9-10C2.2,2.1,1.5,1.8,0.8,1.8L0,1.7l0-0.6l0-0.6l0.2,0c0.1,0,4.7,0,10.1,0l9.9,0l0,0.3c0,0.2,0.1,1.8,0.1,3.6
			l0,3.3l-0.5,0.2C19.1,8,19.1,8,18.8,7.1c-0.8-2.2-1.8-3.5-3.1-4.2c-0.9-0.4-1.3-0.5-3.9-0.5H9.4L9.4,2.8z M50.1,7.7
			c0,0.2-1.7,4.8-1.8,4.8c-0.3-0.1-0.5-0.2-0.8-0.3c-0.7-0.3-1.4-0.5-2.2-0.5c-0.8,0-1.6,0.2-2.2,0.7c-0.2,0.2-0.2,0.2-0.2,2.8
			c0,2.6,0,5.8,0.2,7c0.1,1.1,0.4,1.6,1,1.9c0.6,0.1,1.2,0.2,1.9,0.3c0,0.2,0.1,0.4,0,0.6l0,0.6l-5.3,0c-2.9,0-5.3,0-5.4,0l0,0
			c-0.1,0-0.1-0.2-0.1-0.6l0-0.5l0.2-0.1c0.1,0,0.4-0.1,0.7-0.1c0.7-0.1,1.2-0.6,1.3-1.2c0.3-2.1,0.4-4.2,0.3-6.4
			c0-4.7-0.1-5.8-0.6-6.4c-0.3-0.3-0.4-0.4-1.1-0.6c-0.3-0.1-0.6-0.1-0.7-0.1c-0.1,0-0.2-0.1-0.2-0.4s0-0.4,0.2-0.5
			c0.2-0.1,7.3-1.5,7.5-1.5h0.2l0,1.1c0,0.6,0,1.4-0.1,1.9l0,0.8l0.3-0.5c0.6-1.3,1.7-2.3,3-3c0.6-0.3,1.3-0.4,2-0.4
			C49.1,7.1,50.1,7.4,50.1,7.7z"/>
	</g>
</g>
</svg>
