<?xml version="1.0" encoding="utf-8"?>
<!-- Generator: Adobe Illustrator 22.1.0, SVG Export Plug-In . SVG Version: 6.00 Build 0)  -->
<svg version="1.1" id="Layer_1" xmlns="http://www.w3.org/2000/svg" xmlns:xlink="http://www.w3.org/1999/xlink" x="0px" y="0px"
	 viewBox="0 0 107 36" style="enable-background:new 0 0 107 36;" xml:space="preserve" aria-labelledby="oprahLogo">
<title id="oprahLogo">Oprah</title>
<style type="text/css">
	.st0{fill:#6b6257;}
</style>
<desc>Created with Sketch.</desc>
<g id="oprah_hor" transform="translate(408.000000, 1.000000)">
	<path id="Shape" class="st0" d="M-382.3,17.1c0,8.1-1.4,17.1-9.4,17.1c-7.5,0-9-9-8.9-16.8c0.1-8.5,1.2-17.7,9-17.7
		C-383.9-0.3-382.3,8.5-382.3,17.1z M-391.6,34.8c9.6,0,16.8-8.3,16.8-17.9c0-9.5-7.1-17.9-16.7-17.9c-9.2,0-16.5,8.6-16.5,18.2
		C-408,26.6-401,34.8-391.6,34.8z"/>
	<path id="Shape_1_" class="st0" d="M-339.2,7.5c-1.6,0-3.2,1.2-3.2,3.2s1.6,3.2,3.2,3.2s3.2-1.2,3.2-3.2S-337.6,7.5-339.2,7.5z
		 M-339.2,12.9c-0.6,0-1.1-0.2-1.5-0.6s-0.6-1-0.6-1.6s0.2-1.1,0.6-1.6c0.4-0.4,1-0.6,1.5-0.6c1.2,0,2.1,1,2.1,2.2
		S-338,12.8-339.2,12.9z"/>
	<path id="Shape_2_" class="st0" d="M-330,7.6h-1.9v6.1h1.1v-2.6h0.8c0.9,0,1.9-0.6,1.9-1.8S-329,7.6-330,7.6z M-330.8,8.6h0.6
		c0.5,0,1,0.2,1,0.8s-0.5,0.8-1,0.8h-0.6V8.6z"/>
	<path id="Shape_3_" class="st0" d="M-321.3,10.9c0.6-0.3,1-0.9,1-1.6c0-1.2-0.9-1.8-1.9-1.8h-2v6.1h1.1V11h0.7l1.9,2.6h1.3
		L-321.3,10.9z M-321.4,9.4c0,0.6-0.5,0.8-1,0.8h-0.7V8.6h0.7C-321.9,8.6-321.4,8.8-321.4,9.4L-321.4,9.4z"/>
	<path id="Shape_4_" class="st0" d="M-313.1,7.5h-0.4l-2.6,6.2h1.1l0.6-1.5h2.2l0.6,1.5h1.1L-313.1,7.5z M-312.6,11.3h-1.4l0.4-1
		c0.1-0.3,0.2-0.5,0.3-0.8c0.1,0.3,0.2,0.6,0.3,0.8L-312.6,11.3z"/>
	<polygon id="Shape_5_" class="st0" points="-302.6,7.6 -302.6,10.2 -305.5,10.2 -305.5,7.6 -306.6,7.6 -306.6,13.7 -305.5,13.7 
		-305.5,11.2 -302.6,11.2 -302.6,13.7 -301.5,13.7 -301.5,7.6 	"/>
	<polyline id="Shape_6_" class="st0" points="-366.6,8.5 -366.6,13.7 -367.5,13.7 -367.5,8.5 -369.4,8.5 -369.4,7.7 -364.7,7.7 
		-364.7,8.5 -366.6,8.5 	"/>
	<polyline id="Shape_7_" class="st0" points="-356.8,13.7 -356.8,11.1 -359.8,11.1 -359.8,13.7 -360.7,13.7 -360.7,7.7 -359.8,7.7 
		-359.8,10.3 -356.8,10.3 -356.8,7.7 -355.9,7.7 -355.9,13.7 -356.8,13.7 	"/>
	<polyline id="Shape_8_" class="st0" points="-351.3,13.7 -351.3,7.7 -348.1,7.7 -348.1,8.5 -350.4,8.5 -350.4,10.3 -348.5,10.3 
		-348.5,11.1 -350.4,11.1 -350.4,12.9 -347.8,12.9 -347.8,13.7 -351.3,13.7 	"/>
	<path id="Shape_9_" class="st0" d="M-363.6,26.2l-0.2-2c-0.1-0.7-0.1-1.4-0.2-2.1l0,0c-0.3,0.6-0.6,1.2-0.9,1.9l-1.1,2.2h-0.3
		l-1.1-2.2c-0.4-0.7-0.7-1.3-0.9-1.9l0,0c0,0.7-0.1,1.4-0.2,2.1l-0.2,2h-0.8l0.5-6h0.6l1.4,2.7c0.3,0.7,0.7,1.3,0.9,1.9l0,0
		c0.2-0.6,0.5-1.2,0.9-1.9l1.4-2.7h0.6l0.5,6H-363.6"/>
	<path id="Shape_10_" class="st0" d="M-355,23.9h-1.7l0.4-1.1c0.1-0.3,0.2-0.6,0.4-1.1l0,0c0.2,0.5,0.3,0.7,0.4,1.1L-355,23.9z
		 M-353.1,26.2l-2.5-6h-0.3l-2.5,6h0.9l0.6-1.5h2.3l0.6,1.5H-353.1z"/>
	<path id="Shape_11_" class="st0" d="M-346,26.3c-1.6,0-3.2-1.1-3.2-3.1c0-2.1,1.7-3.1,3.2-3.1c0.7,0,1.3,0.1,1.9,0.5l-0.2,0.8
		c-0.5-0.3-1.1-0.5-1.6-0.5c-1.2,0-2.4,0.8-2.4,2.3s1.2,2.3,2.4,2.3c0.4,0,0.9-0.1,1.3-0.3V24h-1.4v-0.7h2.2v2.4
		C-344.4,26.1-345.1,26.3-346,26.3"/>
	<path id="Shape_12_" class="st0" d="M-335.9,23.9h-1.7l0.4-1.1c0.1-0.3,0.2-0.6,0.4-1.1l0,0c0.2,0.5,0.3,0.7,0.4,1.1L-335.9,23.9z
		 M-334.1,26.2l-2.5-6h-0.3l-2.5,6h0.9l0.6-1.5h2.3l0.6,1.5H-334.1z"/>
	<path id="Shape_13_" class="st0" d="M-329.9,26.2V26l1.9-3.4c0.3-0.5,0.6-1.1,0.9-1.5h-2.7v-0.8h3.9v0.2l-2,3.4
		c-0.3,0.5-0.6,1.1-0.9,1.5l0,0h3v0.8H-329.9"/>
	<rect id="Rectangle-path" x="-321.1" y="20.2" class="st0" width="1" height="6"/>
	<path id="Shape_14_" class="st0" d="M-310.2,26.3l-2.6-2.8c-0.5-0.6-1.1-1.2-1.6-1.8l0,0c0,0.5,0,1,0,1.4v3h-0.9v-5.9h0.6l2.3,2.5
		c0.5,0.6,1.1,1.2,1.5,1.8l0,0c0-0.4,0-1,0-1.4v-2.9h0.9v6.1L-310.2,26.3"/>
	<polyline id="Shape_15_" class="st0" points="-305.1,26.2 -305.1,20.2 -301.9,20.2 -301.9,21 -304.2,21 -304.2,22.8 -302.2,22.8 
		-302.2,23.6 -304.2,23.6 -304.2,25.4 -301.5,25.4 -301.5,26.2 -305.1,26.2 	"/>
</g>
</svg>
