<?xml version="1.0" encoding="utf-8"?>
<!-- Generator: Adobe Illustrator 22.1.0, SVG Export Plug-In . SVG Version: 6.00 Build 0)  -->
<svg version="1.1" id="Layer_1" xmlns="http://www.w3.org/2000/svg" xmlns:xlink="http://www.w3.org/1999/xlink" x="0px" y="0px"
	 viewBox="0 0 375 147" style="enable-background:new 0 0 375 147;" xml:space="preserve" aria-labelledby="googleCustomerReviewsLogo">
<title id="googleCustomerReviewsLogo">Google Customer Reviews</title>
<style type="text/css">
	.st0{fill:#6b6257;}
</style>
<g>
	<path class="st0" d="M167.9,47.2c0,12.8-10,22.2-22.2,22.2c-12.3,0-22.2-9.4-22.2-22.2c0-12.9,10-22.2,22.2-22.2
		S167.9,34.3,167.9,47.2z M158.1,47.2c0-8-5.8-13.4-12.5-13.4s-12.5,5.5-12.5,13.4s5.8,13.4,12.5,13.4S158.1,55.1,158.1,47.2z"/>
	<path class="st0" d="M215.9,47.2c0,12.8-10,22.2-22.3,22.2s-22.2-9.4-22.2-22.2s10-22.2,22.2-22.2S215.9,34.3,215.9,47.2z
		 M206.1,47.2c0-8-5.8-13.4-12.5-13.4s-12.5,5.5-12.5,13.4s5.8,13.4,12.5,13.4C200.3,60.6,206.1,55.1,206.1,47.2z"/>
	<path class="st0" d="M261.9,26.3v39.8c0,16.4-9.7,23.1-21.1,23.1c-10.8,0-17.2-7.2-19.7-13.1l8.5-3.5c1.5,3.6,5.2,7.9,11.2,7.9
		c7.3,0,11.8-4.5,11.8-13v-3.2h-0.3c-2.2,2.7-6.4,5-11.7,5c-11.1,0-21.2-9.7-21.2-22.1c0-12.5,10.2-22.3,21.2-22.3
		c5.3,0,9.5,2.4,11.7,5h0.3v-3.6L261.9,26.3L261.9,26.3z M253.3,47.3c0-7.8-5.2-13.5-11.8-13.5c-6.7,0-12.4,5.7-12.4,13.5
		c0,7.7,5.6,13.4,12.4,13.4C248.1,60.6,253.3,55,253.3,47.3z"/>
	<path class="st0" d="M277.1,3v65h-9.5V3H277.1z"/>
	<path class="st0" d="M314.1,54.5l7.6,5c-2.4,3.6-8.3,9.8-18.5,9.8c-12.6,0-22-9.7-22-22.2c0-13.2,9.5-22.2,20.9-22.2
		c11.5,0,17.1,9.2,19,14.1l1,2.5l-29.6,12.3c2.3,4.5,5.8,6.7,10.8,6.7C308.2,60.6,311.6,58.2,314.1,54.5L314.1,54.5z M290.9,46.5
		l19.8-8.2c-1.1-2.8-4.4-4.7-8.2-4.7C297.5,33.6,290.6,37.9,290.9,46.5z"/>
	<path class="st0" d="M87.4,41.4V32h31.7c0.3,1.6,0.5,3.6,0.5,5.7c0,7.1-1.9,15.8-8.1,22c-6.1,6.3-13.8,9.7-24,9.7
		c-19,0-34.9-15.5-34.9-34.4s16-34.4,34.9-34.4c10.5,0,18,4.1,23.6,9.5l-6.6,6.6c-4-3.8-9.5-6.7-17-6.7c-13.9,0-24.7,11.2-24.7,25
		s10.8,25,24.7,25c9,0,14.1-3.6,17.4-6.9c2.7-2.7,4.4-6.5,5.1-11.7L87.4,41.4z"/>
</g>
<g>
	<path class="st0" d="M25.1,110c-2.7,0-4.8,1-6.3,2.9s-2.3,4.5-2.3,7.9c0,3.5,0.7,6.2,2.2,7.9c1.5,1.8,3.6,2.7,6.4,2.7
		c1.2,0,2.4-0.1,3.5-0.4s2.3-0.5,3.5-0.9v4c-2.2,0.8-4.8,1.3-7.6,1.3c-4.2,0-7.4-1.3-9.6-3.8s-3.4-6.2-3.4-10.9c0-3,0.5-5.6,1.6-7.8
		c1.1-2.2,2.7-3.9,4.7-5.1c2.1-1.2,4.5-1.8,7.2-1.8c2.9,0,5.6,0.6,8.1,1.8l-1.7,3.9c-1-0.5-2-0.9-3.1-1.2S26.3,110,25.1,110z"/>
	<path class="st0" d="M53,135l-0.6-2.8h-0.2c-0.6,1-1.5,1.8-2.7,2.4c-1.2,0.6-2.5,0.9-4,0.9c-2.6,0-4.6-0.7-5.9-2s-1.9-3.3-1.9-5.9
		v-14.1h4.6v13.3c0,1.7,0.3,2.9,1,3.7s1.7,1.2,3.2,1.2c1.9,0,3.3-0.6,4.2-1.7c0.9-1.2,1.4-3.1,1.4-5.8v-10.8h4.6V135H53z"/>
	<path class="st0" d="M77.7,128.8c0,2.1-0.8,3.7-2.3,4.9c-1.5,1.1-3.7,1.7-6.6,1.7s-5.2-0.4-6.9-1.3v-4c2.5,1.2,4.9,1.8,7.1,1.8
		c2.8,0,4.2-0.9,4.2-2.6c0-0.5-0.2-1-0.5-1.4s-0.8-0.7-1.5-1.1s-1.7-0.8-3-1.3c-2.5-1-4.2-1.9-5-2.9s-1.3-2.2-1.3-3.8
		c0-1.8,0.7-3.3,2.2-4.3s3.5-1.5,6.1-1.5c2.5,0,4.9,0.5,7.2,1.5l-1.5,3.5c-2.3-1-4.3-1.4-5.9-1.4c-2.4,0-3.6,0.7-3.6,2.1
		c0,0.7,0.3,1.2,0.9,1.7s2,1.1,4.1,1.9c1.8,0.7,3.1,1.3,3.9,1.9s1.4,1.2,1.8,2S77.7,127.8,77.7,128.8z"/>
	<path class="st0" d="M90.7,131.6c1.1,0,2.2-0.2,3.4-0.5v3.5c-0.5,0.2-1.2,0.4-2,0.6s-1.6,0.2-2.5,0.2c-4.3,0-6.5-2.3-6.5-6.9v-11.6
		h-2.9v-2l3.2-1.7l1.6-4.6h2.8v4.8H94v3.5h-6.2v11.6c0,1.1,0.3,1.9,0.8,2.5C89.1,131.4,89.8,131.6,90.7,131.6z"/>
	<path class="st0" d="M117.6,124.1c0,3.5-0.9,6.3-2.7,8.3s-4.3,3-7.6,3c-2,0-3.8-0.5-5.4-1.4c-1.5-0.9-2.7-2.2-3.6-3.9
		c-0.8-1.7-1.2-3.7-1.2-5.9c0-3.5,0.9-6.2,2.7-8.2s4.3-2.9,7.6-2.9c3.1,0,5.6,1,7.4,3C116.6,118,117.6,120.7,117.6,124.1z
		 M101.8,124.1c0,5,1.8,7.5,5.5,7.5c3.6,0,5.5-2.5,5.5-7.5c0-4.9-1.8-7.4-5.5-7.4c-1.9,0-3.3,0.6-4.2,1.9
		C102.3,119.9,101.8,121.7,101.8,124.1z"/>
	<path class="st0" d="M141,135h-4.6v-13.3c0-1.7-0.3-2.9-0.9-3.7s-1.6-1.2-2.9-1.2c-1.8,0-3.1,0.6-3.9,1.7c-0.8,1.2-1.2,3.1-1.2,5.8
		V135h-4.6v-21.6h3.6l0.6,2.8h0.2c0.6-1,1.5-1.8,2.6-2.4s2.4-0.8,3.8-0.8c3.3,0,5.5,1.1,6.6,3.4h0.3c0.6-1.1,1.5-1.9,2.7-2.5
		s2.5-0.9,4-0.9c2.6,0,4.5,0.7,5.6,2s1.8,3.3,1.8,6v14h-4.6v-13.3c0-1.7-0.3-2.9-0.9-3.7s-1.6-1.2-2.9-1.2c-1.8,0-3.1,0.6-3.9,1.7
		c-0.8,1.1-1.2,2.8-1.2,5.1V135H141z"/>
	<path class="st0" d="M170.5,135.4c-3.4,0-6-1-7.9-2.9s-2.8-4.7-2.8-8.1c0-3.5,0.9-6.3,2.6-8.3s4.2-3,7.2-3c2.9,0,5.1,0.9,6.8,2.6
		s2.5,4.1,2.5,7.1v2.5h-14.4c0.1,2.1,0.6,3.7,1.7,4.8s2.6,1.7,4.5,1.7c1.3,0,2.5-0.1,3.6-0.4s2.3-0.6,3.5-1.2v3.7
		c-1.1,0.5-2.3,0.9-3.4,1.1S172,135.4,170.5,135.4z M169.7,116.4c-1.5,0-2.6,0.5-3.5,1.4s-1.4,2.3-1.6,4h9.8c0-1.8-0.5-3.1-1.3-4.1
		S171.1,116.4,169.7,116.4z"/>
	<path class="st0" d="M195.1,113c0.9,0,1.7,0.1,2.3,0.2l-0.4,4.3c-0.7-0.2-1.3-0.2-2-0.2c-1.8,0-3.3,0.6-4.5,1.8s-1.7,2.8-1.7,4.7
		V135h-4.6v-21.6h3.6l0.6,3.8h0.2c0.7-1.3,1.7-2.3,2.8-3.1S193.7,113,195.1,113z"/>
	<path class="st0" d="M216.9,123.6V135h-4.7v-28.6h8.1c3.7,0,6.4,0.7,8.2,2.1s2.7,3.5,2.7,6.2c0,3.6-1.8,6.1-5.5,7.6l8.1,12.6h-5.3
		l-6.8-11.4h-4.8V123.6z M216.9,119.7h3.2c2.2,0,3.8-0.4,4.7-1.2s1.5-2,1.5-3.6s-0.5-2.8-1.6-3.5s-2.6-1.1-4.8-1.1h-3.1L216.9,119.7
		L216.9,119.7z"/>
	<path class="st0" d="M246.8,135.4c-3.4,0-6-1-7.9-2.9s-2.8-4.7-2.8-8.1c0-3.5,0.9-6.3,2.6-8.3s4.2-3,7.2-3c2.9,0,5.1,0.9,6.8,2.6
		s2.5,4.1,2.5,7.1v2.5h-14.4c0.1,2.1,0.6,3.7,1.7,4.8s2.6,1.7,4.5,1.7c1.3,0,2.5-0.1,3.6-0.4s2.3-0.6,3.5-1.2v3.7
		c-1.1,0.5-2.3,0.9-3.4,1.1S248.2,135.4,246.8,135.4z M245.9,116.4c-1.5,0-2.6,0.5-3.5,1.4s-1.4,2.3-1.6,4h9.8
		c0-1.8-0.5-3.1-1.3-4.1S247.4,116.4,245.9,116.4z"/>
	<path class="st0" d="M265.3,135l-8.2-21.6h4.8l4.4,12.6c0.8,2.1,1.2,3.8,1.4,5.1h0.2c0.1-0.9,0.6-2.6,1.4-5.1l4.4-12.6h4.9
		l-8.2,21.6L265.3,135L265.3,135z"/>
	<path class="st0" d="M281.5,107.6c0-0.8,0.2-1.5,0.7-1.9s1.1-0.7,1.9-0.7s1.4,0.2,1.9,0.7s0.7,1.1,0.7,1.9s-0.2,1.4-0.7,1.8
		s-1.1,0.7-1.9,0.7s-1.5-0.2-1.9-0.7S281.5,108.4,281.5,107.6z M286.4,135h-4.6v-21.6h4.6V135z"/>
	<path class="st0" d="M302.4,135.4c-3.4,0-6-1-7.9-2.9s-2.8-4.7-2.8-8.1c0-3.5,0.9-6.3,2.6-8.3s4.2-3,7.2-3c2.9,0,5.1,0.9,6.8,2.6
		s2.5,4.1,2.5,7.1v2.5h-14.4c0.1,2.1,0.6,3.7,1.7,4.8s2.6,1.7,4.5,1.7c1.3,0,2.5-0.1,3.6-0.4s2.3-0.6,3.5-1.2v3.7
		c-1.1,0.5-2.3,0.9-3.4,1.1S303.8,135.4,302.4,135.4z M301.5,116.4c-1.5,0-2.6,0.5-3.5,1.4s-1.4,2.3-1.6,4h9.8
		c0-1.8-0.5-3.1-1.3-4.1S303,116.4,301.5,116.4z"/>
	<path class="st0" d="M333.7,135l-2.8-10.1c-0.3-1.1-1-3.5-1.8-7.4h-0.2c-0.8,3.5-1.4,6-1.8,7.5l-2.9,10h-5.1l-6.1-21.6h4.7
		l2.8,10.6c0.6,2.6,1.1,4.9,1.3,6.8h0.1c0.1-1,0.3-2,0.6-3.3s0.5-2.2,0.7-2.8l3.3-11.4h5l3.2,11.4c0.2,0.6,0.4,1.6,0.7,2.9
		c0.3,1.3,0.5,2.3,0.5,3.1h0.2c0.2-1.6,0.7-3.8,1.4-6.7l2.8-10.6h4.6l-6.1,21.6H333.7z"/>
	<path class="st0" d="M363.2,128.8c0,2.1-0.8,3.7-2.3,4.9s-3.7,1.7-6.6,1.7s-5.2-0.4-6.9-1.3v-4c2.5,1.2,4.9,1.8,7.1,1.8
		c2.8,0,4.2-0.9,4.2-2.6c0-0.5-0.2-1-0.5-1.4s-0.8-0.7-1.5-1.1s-1.7-0.8-3-1.3c-2.5-1-4.2-1.9-5-2.9s-1.3-2.2-1.3-3.8
		c0-1.8,0.7-3.3,2.2-4.3s3.5-1.5,6.1-1.5c2.5,0,4.9,0.5,7.2,1.5l-1.5,3.5c-2.3-1-4.3-1.4-5.9-1.4c-2.4,0-3.6,0.7-3.6,2.1
		c0,0.7,0.3,1.2,0.9,1.7s2,1.1,4.1,1.9c1.8,0.7,3.1,1.3,3.9,1.9s1.4,1.2,1.8,2S363.2,127.8,363.2,128.8z"/>
</g>
</svg>
