<?xml version="1.0" encoding="utf-8"?>
<!-- Generator: Adobe Illustrator 22.1.0, SVG Export Plug-In . SVG Version: 6.00 Build 0)  -->
<svg version="1.1" id="Layer_1" xmlns="http://www.w3.org/2000/svg" xmlns:xlink="http://www.w3.org/1999/xlink" x="0px" y="0px"
	 viewBox="0 0 133.5 34" style="enable-background:new 0 0 133.5 34;" xml:space="preserve" aria-labelledby="apartmentTherapyLogo">
<title id="apartmentTherapyLogo">Apartment Therapy</title>
<style type="text/css">
	.st0{fill:#6b6257;}
</style>
<g id="Layer_2_1_">
	<g id="Layer_1-2">
		<path class="st0" d="M44.8,19.5c-0.2-2.4-1.2-4.7-3-6.3c-0.8-0.6-1.7-1-2.6-1.4c-0.8-0.4-1.6-0.9-2.3-1.6c-0.4-0.6-0.5-1.3-0.2-2
			c0-0.1,0-0.2,0.1-0.2c0.3-0.8,0.5-1.7,0.6-2.6c0.1-1.3-0.3-2.5-1.2-3.4c-0.8-0.7-1.9-1.1-3-1.1c-1.2-0.1-2.4,0.5-3.1,1.4
			c-0.5,0.6-0.9,1.2-1.3,1.9c-0.8,1.5-1.3,2-1.9,2h0c-0.7,0-1.1-1-1.7-1.8c-1-1.4-2.4-3.7-4.8-3.7c-0.7,0-1.4,0.2-2,0.6
			c-2,1.2-2.3,3.9-2.6,5.6l0,0.2c-1.1,6.2-2.6,1.6-3.4-0.5c-0.6-1.5-1.3-2.8-2.2-4.1C9.1,0.9,7.5,0,5.7,0c-1,0-2,0.2-2.9,0.7
			C1.3,1.4,0.2,2.9,0,4.6c-0.4,3.4,2.1,5.9,4.5,8.2c0.3,0.3,0.6,0.5,0.8,0.8c1.2,0.9,2.2,2,3,3.2c0.6,0.9,0.6,2.1-0.1,3
			C8,20.4,7.6,21,7.1,21.5c-0.7,0.8-1.3,1.7-1.7,2.7c-0.6,1.5-0.6,3.2,0,4.7c0.4,0.8,1,1.6,1.7,2.2c0.7,0.6,1.6,1,2.6,1.2
			c0.4,0.1,0.9,0.1,1.3,0.1c2,0.1,3.9-0.9,5-2.6c0.8-1.5,1.3-3.1,1.6-4.8c0.8-2.9,1.2-4.2,2.5-4.3c0,0,0.1,0,0.1,0
			c0.3,0,0.6,0.1,0.7,0.3c0.6,0.9,0.8,2,0.6,3c0,0.2-0.1,0.5-0.1,0.8c-0.3,2.3-0.8,5.5,0.8,7.5c0.9,1,2.1,1.6,3.4,1.6
			c0.2,0,0.3,0,0.5,0c3.8,0,6.3-3.5,5.8-8.9c-0.1-0.5-0.2-1.1-0.3-1.8c-0.3-1.3-0.5-2.7-0.5-4c0-0.7,0.1-1.9,0.6-1.9
			c0.5,0,0.8,0.7,1.2,1.4c0.2,0.5,0.4,1.1,0.6,1.7c0.4,1.6,1.2,3,2.4,4.2c1,1,2.3,1.6,3.7,1.6c1.4,0,2.8-0.7,3.7-1.7
			C44.5,23.2,45,21.3,44.8,19.5z M40.9,22.6c-0.3,0.4-0.8,0.6-1.3,0.7c-0.6,0-1.1-0.3-1.5-0.7c-0.8-0.9-1.3-2-1.6-3.1
			c-0.2-0.7-0.4-1.3-0.7-2c-0.3-0.7-0.7-1.3-1.2-1.9c-0.7-0.8-1.7-1.3-2.8-1.3c-0.6,0-1.1,0.1-1.6,0.4c-1.4,0.9-2,2.3-2.1,4.5
			c0,1.6,0.2,3.1,0.5,4.7c0.1,0.6,0.2,1.2,0.2,1.5c0.2,2.2-0.2,3.8-0.9,4.6c-0.4,0.5-1.1,0.8-1.8,0.8c-0.1,0-0.2,0-0.3,0
			c-0.8,0-1-0.3-1-0.4c-0.7-0.9-0.4-3.5-0.2-5c0-0.3,0.1-0.6,0.1-0.9c0.1-1,0.1-1.9,0-2.9c-0.2-1-0.6-1.9-1.3-2.7
			c-0.8-0.9-2-1.4-3.2-1.4c-0.1,0-0.2,0-0.4,0c-1.7,0.1-3.2,1-4,2.5c-0.8,1.3-1.3,2.7-1.6,4.2c-0.4,3.6-1.3,4.8-3.3,4.8
			c-0.3,0-0.5,0-0.8-0.1c-0.7-0.2-1.4-0.7-1.7-1.4c-0.6-1.3,0-2.8,1.4-4.5c0.5-0.6,1-1.2,1.4-1.9c0.6-1,0.9-2.1,0.9-3.3
			c-0.1-1-0.4-2-1-2.9c-1-1.5-2.2-2.9-3.6-4c-0.3-0.3-0.6-0.5-0.8-0.7c-2.2-2-3.8-3.7-3.5-5.5c0-0.2,0-0.7,1.1-1.3
			c0.4-0.2,0.9-0.4,1.4-0.3c1.5,0,2.9,2.5,3.8,4.6c0.4,0.8,0.7,1.6,1.1,2.2c0.4,0.7,1.4,2.8,3.7,2.8c0.4,0,0.8-0.1,1.2-0.3
			c1.6-0.7,2.6-2.2,3.1-5l0-0.2C19.1,5.2,19.8,3,21,4.3c0.4,0.5,0.8,1.1,1.2,1.7c0.3,0.6,0.7,1.1,1.2,1.6c0.8,1.1,2.1,1.7,3.5,1.8
			h0.1c1.2-0.1,2.3-0.6,3-1.5c0.6-0.7,1.1-1.4,1.5-2.2c0.2-0.5,0.5-0.9,0.9-1.3c0.2-0.3,0.6-0.5,0.9-0.5c0.3,0,0.5,0.1,0.8,0.2
			c0.5,0.5,0.4,1.2-0.1,2.9c0,0.1-0.1,0.2-0.1,0.3c-0.6,1.6-0.2,3.4,0.9,4.8c0.8,0.9,1.8,1.6,2.9,2.2c0.8,0.4,1.6,0.8,2.3,1.3
			c1.1,1.1,1.8,2.6,1.9,4.2C41.9,20.7,41.6,21.8,40.9,22.6z M115.8,20.9l-5.7,11.9c-0.1,0.2-0.2,0.3-0.4,0.3h-0.9
			c-0.2,0-0.4-0.1-0.4-0.3c0-0.1,0-0.2,0.1-0.3l1.5-3l-4.3-8.7c-0.1-0.3,0-0.5,0.3-0.5h1.2c0.2,0,0.3,0.1,0.4,0.3l3.3,7.1h0l3.1-7.1
			c0.1-0.1,0.2-0.2,0.4-0.3h1C115.8,20.4,115.9,20.6,115.8,20.9z M90.4,20.1c-0.9,0-1.9,0.2-2.7,0.6c-0.2,0-0.3,0.3-0.3,0.4
			c0,0,0,0,0,0.1l0.2,0.6c0.1,0.2,0.2,0.3,0.4,0.2c0.7-0.3,1.5-0.5,2.3-0.5c1.3,0,2,0.8,2,2.5c-0.6-0.4-1.3-0.6-2-0.6
			c-2.4,0-3.9,1.3-3.9,3.1c-0.1,1.7,1.3,3.1,2.9,3.2c0,0,0,0,0.1,0c1.1,0,2.1-0.3,2.9-1l0,0.6c0.1,0.2,0.1,0.3,0.4,0.3h0.6
			c0.2,0,0.4-0.2,0.4-0.4V24C93.8,21.3,92.7,20.1,90.4,20.1z M92.3,27.1c-0.6,0.7-1.6,1.2-2.5,1.1c-1,0-1.8-0.8-1.8-1.8
			c0-1.2,0.9-1.7,2.2-1.7c0.8,0,1.5,0.2,2.1,0.7V27.1z M74,20.2c-2.5,0-4.5,2-4.5,4.5c0,0.1,0,0.2,0,0.3c-0.2,2.5,1.7,4.6,4.1,4.8
			c0.1,0,0.2,0,0.3,0c1.2,0,2.4-0.4,3.3-1c0.3-0.2,0.2-0.4,0.1-0.6c-0.1-0.2-0.3-0.3-0.4-0.5c-0.2-0.2-0.3-0.1-0.6,0
			c-0.7,0.4-1.5,0.7-2.3,0.7c-1.5-0.1-2.8-1.2-3-2.8c0-0.1,0-0.2,0.1-0.2h6.4c0.2,0,0.4-0.2,0.4-0.4c0-0.2,0-0.4,0-0.6
			c0.1-2.2-1.6-4.1-3.9-4.2C74.2,20.2,74.1,20.2,74,20.2z M76.4,24.1h-5.1c-0.1,0-0.2-0.1-0.2-0.1c0,0,0,0,0,0
			c0.2-1.4,1.4-2.4,2.8-2.3c1.3,0,2.4,1,2.5,2.3C76.5,24,76.5,24.1,76.4,24.1z M57.9,28.4c0.2,0.3,0.1,0.4-0.2,0.6
			c-0.6,0.5-1.3,0.7-2.1,0.8c-1.3,0.2-2.5-0.8-2.6-2c0-0.2,0-0.3,0-0.5v-5.2c0-0.1-0.1-0.3-0.3-0.3h-0.9c-0.2,0-0.4-0.2-0.4-0.4
			v-0.5c0-0.2,0.2-0.4,0.4-0.4c0,0,0,0,0,0h0.9c0.2,0,0.3-0.1,0.3-0.3v-2.4c0-0.2,0.2-0.4,0.5-0.4h0.7c0.2,0,0.4,0.2,0.4,0.4v2.4
			c0,0.2,0.1,0.3,0.3,0.3c0,0,0,0,0,0h2.3c0.2,0,0.4,0.2,0.4,0.4c0,0,0,0,0,0v0.5c0,0.2-0.2,0.4-0.4,0.4h-2.3
			c-0.2,0-0.3,0.1-0.3,0.3v5c0,0.1,0.1,1.2,1,1.2c0.5,0,1-0.2,1.4-0.6c0.3-0.2,0.4,0,0.5,0.1L57.9,28.4z M68,24.3v4.8
			c0,0.2-0.2,0.4-0.4,0.4h-0.7c-0.2,0-0.4-0.2-0.4-0.4v-4.8c0.1-1.3-0.8-2.4-2.1-2.6c-0.1,0-0.2,0-0.3,0c-0.2,0-0.3,0-0.5,0
			c-1.2,0.1-2.1,1.1-2.1,2.3v5c0,0.2-0.2,0.4-0.4,0.4h-0.7c-0.2,0-0.4-0.2-0.4-0.4V16.8c0-0.2,0.2-0.4,0.4-0.4H61
			c0.2,0,0.4,0.2,0.4,0.4v4.3c0,0.3,0.2,0.1,0.2,0.1l0,0c0.7-0.7,1.6-1,2.5-1C66.4,20.2,68,21.6,68,24.3z M100.5,20.1
			c-0.9,0-1.8,0.3-2.5,0.9v-0.1c0-0.2-0.2-0.4-0.4-0.4h-0.7c-0.2,0-0.4,0.2-0.4,0.4v11.9c0,0.2,0.2,0.4,0.4,0.4h0.7
			c0.2,0,0.4-0.2,0.4-0.4V29c0.7,0.5,1.6,0.8,2.5,0.8c2.5-0.1,4.5-2.2,4.4-4.7c0,0,0-0.1,0-0.1C105,22.4,103,20.2,100.5,20.1
			C100.5,20.1,100.5,20.1,100.5,20.1L100.5,20.1z M100.2,28.2c-0.8,0-1.6-0.3-2.2-0.8v-4.8c0.6-0.7,1.4-1.1,2.4-1.1
			c1.8,0,2.9,1.6,2.9,3.4c0.1,1.7-1.2,3.2-2.9,3.3C100.3,28.2,100.2,28.2,100.2,28.2L100.2,28.2z M85.8,20.8l-0.3,0.8
			c-0.1,0.3-0.3,0.3-0.6,0.2c-0.3-0.1-0.6-0.2-0.9-0.2c-1,0-1.9,0.5-2.5,1.3v6.2c0,0.2-0.2,0.4-0.4,0.4h-0.7c-0.2,0-0.4-0.2-0.4-0.4
			v-8.2c0-0.2,0.2-0.4,0.4-0.4h0.7c0.2,0,0.4,0.2,0.4,0.4v0.3c0.7-0.7,1.6-1.1,2.6-1.1C84.9,20.1,86,20.2,85.8,20.8L85.8,20.8z
			 M112,3.7c-2.5,0-4.5,2-4.5,4.5c0,0.1,0,0.2,0,0.3c-0.2,2.5,1.7,4.6,4.1,4.8c0.1,0,0.2,0,0.3,0c1.2,0,2.4-0.4,3.3-1
			c0.3-0.2,0.2-0.4,0.1-0.6c-0.1-0.2-0.3-0.3-0.4-0.5c-0.2-0.2-0.3-0.1-0.6,0c-0.7,0.4-1.5,0.7-2.3,0.7c-1.5-0.1-2.8-1.2-3-2.8
			c0-0.1,0-0.2,0.1-0.2h6.4c0.2,0,0.4-0.2,0.4-0.4c0-0.2,0-0.4,0-0.6c0.1-2.2-1.6-4.1-3.9-4.2C112.2,3.7,112.1,3.7,112,3.7L112,3.7z
			 M114.4,7.6h-5.1c-0.1,0-0.2-0.1-0.2-0.1c0,0,0,0,0,0c0.2-1.4,1.4-2.4,2.8-2.3c1.3,0,2.4,1,2.5,2.3C114.6,7.5,114.6,7.6,114.4,7.6
			L114.4,7.6z M133.3,12.5c-0.6,0.5-1.3,0.7-2.1,0.8c-1.3,0.2-2.5-0.8-2.6-2c0-0.2,0-0.3,0-0.5V5.6c0-0.1-0.1-0.3-0.3-0.3h-0.9
			c-0.2,0-0.4-0.2-0.4-0.4c0,0,0,0,0,0V4.4c0-0.2,0.2-0.4,0.4-0.4c0,0,0,0,0,0h0.9c0.2,0,0.3-0.2,0.3-0.3V1.3c0-0.2,0.2-0.4,0.5-0.4
			h0.7c0.2,0,0.4,0.2,0.4,0.4v2.4c0,0.2,0.1,0.3,0.3,0.3c0,0,0,0,0,0h2.3c0.2,0,0.4,0.2,0.4,0.4c0,0,0,0,0,0v0.5
			c0,0.2-0.2,0.4-0.4,0.4l0,0h-2.3c-0.2,0-0.3,0.1-0.3,0.3v5c0,0.1,0.1,1.2,1,1.2c0.5,0,1-0.2,1.4-0.6c0.3-0.2,0.4,0,0.5,0.1
			l0.3,0.6C133.6,12.2,133.5,12.4,133.3,12.5L133.3,12.5z M126,7.8v4.8c0,0.2-0.2,0.4-0.4,0.4h-0.7c-0.2,0-0.4-0.2-0.4-0.4V7.8
			c0.1-1.3-0.8-2.4-2.1-2.6c-0.1,0-0.2,0-0.3,0c-0.2,0-0.3,0-0.5,0c-1.2,0.1-2.1,1.1-2.1,2.3v5c0,0.2-0.2,0.4-0.4,0.4h-0.7
			c-0.2,0-0.4-0.2-0.4-0.4V4.4c0-0.2,0.2-0.4,0.4-0.4h0.7c0.2,0,0.4,0.2,0.4,0.4v0.2c0,0.3,0.2,0.1,0.2,0.1c0.7-0.7,1.6-1,2.5-1
			C124.3,3.7,125.9,5.2,126,7.8L126,7.8z M50.7,3.6c-0.9,0-1.9,0.2-2.7,0.6c-0.2,0.1-0.3,0.2-0.3,0.5l0.2,0.6
			c0.1,0.2,0.2,0.3,0.4,0.2C49.1,5.2,49.9,5,50.7,5c1.3,0,2,0.8,2,2.5c-0.6-0.4-1.3-0.6-2-0.6c-2.4,0-3.8,1.3-3.8,3.1
			c-0.1,1.7,1.3,3.1,2.9,3.2c0,0,0,0,0.1,0c1.1,0,2.1-0.3,2.9-1l0,0.6c0.1,0.2,0.1,0.3,0.4,0.3h0.6c0.2,0,0.4-0.2,0.4-0.4V7.5
			C54.1,4.8,53.1,3.6,50.7,3.6z M52.6,10.6c-0.6,0.7-1.6,1.2-2.5,1.1c-1,0-1.8-0.8-1.8-1.8c0-1.2,0.9-1.7,2.2-1.7
			c0.8,0,1.5,0.2,2.1,0.7V10.6z M70.1,3.6c-0.9,0-1.9,0.2-2.7,0.6c-0.2,0-0.3,0.3-0.3,0.5c0,0,0,0,0,0.1l0.2,0.6
			c0.1,0.2,0.2,0.3,0.4,0.2C68.5,5.2,69.3,5,70.1,5c1.3,0,2,0.8,2,2.5c-0.6-0.4-1.3-0.6-2-0.6c-2.4,0-3.9,1.3-3.9,3.1
			c-0.1,1.7,1.3,3.1,2.9,3.2c0,0,0,0,0.1,0c1.1,0,2.1-0.3,2.9-1l0,0.6c0.1,0.2,0.1,0.3,0.4,0.3h0.6c0.2,0,0.4-0.2,0.4-0.4V7.5
			C73.6,4.8,72.5,3.6,70.1,3.6z M72,10.6c-0.6,0.7-1.6,1.2-2.5,1.1c-1,0-1.8-0.8-1.8-1.8c0-1.2,0.9-1.7,2.2-1.7
			c0.8,0,1.5,0.2,2.1,0.7V10.6z M82.9,4.9V4.4c0-0.2,0.2-0.4,0.4-0.4c0,0,0,0,0,0h0.9c0.2,0,0.3-0.2,0.3-0.3V1.3
			c0-0.2,0.2-0.4,0.5-0.4h0.7C85.9,0.9,86,1,86,1.3v2.4C86,3.8,86.2,4,86.4,4c0,0,0,0,0,0h2.3c0.2,0,0.4,0.2,0.4,0.4c0,0,0,0,0,0
			v0.5c0,0.2-0.2,0.4-0.4,0.4l0,0h-2.3c-0.2,0-0.3,0.1-0.3,0.3c0,0,0,0,0,0v5c0,0.1,0.1,1.2,1,1.2c0.5,0,1-0.2,1.4-0.6
			c0.3-0.2,0.4,0,0.5,0.1l0.3,0.6c0.2,0.3,0.1,0.4-0.2,0.6c-0.6,0.5-1.3,0.7-2.1,0.8c-1.3,0.2-2.5-0.8-2.6-2c0-0.2,0-0.3,0-0.5V5.6
			c0-0.1-0.1-0.3-0.3-0.3h-0.9C83.1,5.3,82.9,5.1,82.9,4.9C82.9,4.9,82.9,4.9,82.9,4.9z M60.6,3.6c-0.9,0-1.8,0.3-2.5,0.9V4.4
			C58,4.1,57.8,4,57.6,4h-0.7c-0.2,0-0.4,0.2-0.4,0.4v11.9c0,0.2,0.2,0.4,0.4,0.4h0.7c0.2,0,0.4-0.2,0.4-0.4v-3.7
			c0.7,0.5,1.6,0.8,2.5,0.8c2.5-0.1,4.5-2.2,4.4-4.7c0,0,0-0.1,0-0.1C65.1,6,63.2,3.8,60.6,3.6C60.6,3.6,60.6,3.6,60.6,3.6z
			 M60.3,11.8c-0.8,0-1.6-0.3-2.2-0.8V6.2c0.6-0.7,1.4-1.1,2.4-1.1c1.8,0,2.9,1.6,2.9,3.4c0.1,1.7-1.2,3.2-2.9,3.3
			C60.4,11.7,60.3,11.7,60.3,11.8z M80.8,5.4c-0.3-0.1-0.6-0.2-0.9-0.2c-1,0-1.9,0.5-2.5,1.3v6.2c0,0.2-0.2,0.4-0.4,0.4h-0.7
			c-0.2,0-0.4-0.2-0.4-0.4V4.4C75.8,4.1,76,4,76.3,4H77c0.2,0,0.4,0.2,0.4,0.4v0.3c0.7-0.7,1.6-1.1,2.6-1.1c0.7,0,1.8,0.1,1.6,0.8
			l-0.3,0.8C81.3,5.5,81.1,5.5,80.8,5.4z M105.6,13.1h-0.7c-0.2,0-0.4-0.2-0.4-0.4V7.8c0.1-1.3-0.8-2.4-2.1-2.6c-0.1,0-0.2,0-0.3,0
			c-0.2,0-0.3,0-0.5,0c-1.2,0.1-2.1,1.1-2.1,2.3v5c0,0.2-0.2,0.4-0.4,0.4h-0.7c-0.2,0-0.4-0.2-0.4-0.4V7.8c0.1-1.3-0.8-2.4-2.1-2.6
			c-0.1,0-0.2,0-0.3,0c-0.2,0-0.3,0-0.5,0c-1.2,0.1-2.1,1.1-2.1,2.3v5c0,0.2-0.2,0.4-0.4,0.4h-0.7c-0.2,0-0.4-0.2-0.4-0.4V4.4
			c0-0.2,0.2-0.4,0.4-0.4h0.7c0.2,0,0.4,0.2,0.4,0.4v0.2c0,0.3,0.2,0.1,0.2,0.1c0.7-0.7,1.6-1,2.5-1c1.4-0.1,2.7,0.6,3.4,1.8
			c0.7-1.1,1.9-1.9,3.2-1.8c2.3,0,3.9,1.4,3.9,4.1v4.8C106,12.9,105.8,13.1,105.6,13.1L105.6,13.1z"/>
	</g>
</g>
</svg>
