<?xml version="1.0" encoding="UTF-8"?>
<svg width="60px" height="60px" viewBox="0 0 60 60" version="1.1" xmlns="http://www.w3.org/2000/svg" xmlns:xlink="http://www.w3.org/1999/xlink">
    <title>GH_Bedding_Awards_60x60</title>
    <g id="Saatva.com-/-Good-Housekeeping-Badge" stroke="none" stroke-width="1" fill="none" fill-rule="evenodd">
        <g id="GH_Bedding_Awards_60x60">
            <path d="M50,0 L50.0009958,7.63982628 C56.1379114,13.133004 60,21.1154824 60,30 C60,46.5685425 46.5685425,60 30,60 C13.4314575,60 0,46.5685425 0,30 C0,21.114998 3.86250979,13.1321334 10,7.63892769 L10,0 L50,0 Z" id="Path" fill="#6B6257"></path>
            <path d="M49.8765432,2.84217094e-14 C49.9447265,2.84217094e-14 50,0.0559644063 50,0.125 L50.0009865,11.8624341 C54.3500103,16.6553808 57,23.0182213 57,30 C57,44.9116882 44.9116882,57 30,57 C15.0883118,57 3,44.9116882 3,30 C3,23.1839799 5.52565334,16.9578578 9.69214084,12.2064528 L9.99992126,11.8614337 L10,0.125 C10,0.0559644063 10.0552735,2.84217094e-14 10.1234568,2.84217094e-14 L49.8765432,2.84217094e-14 Z M10,12.765 C6.01194598,17.3905475 3.6,23.4136037 3.6,30 C3.6,44.5803174 15.4196826,56.4 30,56.4 C44.5803174,56.4 56.4,44.5803174 56.4,30 C56.4,23.4140802 53.988403,17.391419 50.0001022,12.7669097 L50,13.875 C50,13.9440356 49.9447265,14 49.8765432,14 L10.1234568,14 C10.0552735,14 10,13.9440356 10,13.875 L10,12.765 Z M30,44 C34.9705627,44 39,46.4624339 39,49.5 C39,52.5375661 34.9705627,55 30,55 C25.0294373,55 21,52.5375661 21,49.5 C21,46.4624339 25.0294373,44 30,44 Z M30,44.1964286 C25.1220903,44.1964286 21.1928571,46.5976266 21.1928571,49.5 C21.1928571,52.4023734 25.1220903,54.8035714 30,54.8035714 C34.8779097,54.8035714 38.8071429,52.4023734 38.8071429,49.5 C38.8071429,46.5976266 34.8779097,44.1964286 30,44.1964286 Z M30,45 C34.418278,45 38,47.0147186 38,49.5 C38,51.9852814 34.418278,54 30,54 C25.581722,54 22,51.9852814 22,49.5 C22,47.0147186 25.581722,45 30,45 Z M30,45.1824324 C25.6701581,45.1824324 22.1846154,47.1430502 22.1846154,49.5 C22.1846154,51.8569498 25.6701581,53.8175676 30,53.8175676 C34.3298419,53.8175676 37.8153846,51.8569498 37.8153846,49.5 C37.8153846,47.1430502 34.3298419,45.1824324 30,45.1824324 Z M29.5960857,51.0007632 C29.6551344,51.1668204 29.8136826,51.2857143 30,51.2857143 C30.1863174,51.2857143 30.3448656,51.1668204 30.4039143,51.0007632 L31,51 L31,51.6527583 L30.663941,51.6527583 L30.663941,53 L29.343264,53 L29.343264,51.5847348 L29,51.5847348 L29,51 L29.5960857,51.0007632 Z M28.9654594,49.5059408 L28.9654594,49.6498241 L28.8375955,49.6498241 L28.8375955,50.2090579 L29.095059,50.2090579 L29.095059,49.9477074 L29.2657371,49.9477074 L29.2657371,50.3529412 L28.485825,50.3529412 L28.485825,50.2090579 L28.6102175,50.2090579 L28.6102175,49.6498241 L28.485825,49.6498241 L28.485825,49.5059408 L28.9654594,49.5059408 Z M31.0981833,49.5059408 C31.2158258,49.5059408 31.3032863,49.5243009 31.3605647,49.5610211 C31.4178431,49.5977413 31.4464823,49.6533837 31.4464823,49.7279482 C31.4464823,49.8100066 31.4054038,49.8682719 31.3232469,49.9027439 C31.3760896,49.9218534 31.4154324,49.9481758 31.4412752,49.9817111 C31.467118,50.0152464 31.4800393,50.0565566 31.4800393,50.1056418 C31.4800393,50.2498998 31.3825865,50.3310449 31.1876808,50.3490771 L31.0981833,50.3529412 L30.6931844,50.3529412 L30.6931844,50.2090579 L30.8007984,50.2090579 L30.8007984,49.6498241 L30.6931844,49.6498241 L30.6931844,49.5059408 L31.0981833,49.5059408 Z M30.2456029,49.5059408 L30.2456029,49.6498241 L30.1281532,49.6498241 L30.3104027,50.2090579 L30.4145452,50.2090579 L30.4145452,50.3529412 L29.985825,50.3529412 L29.985825,50.2090579 L30.097489,50.2090579 L30.055832,50.0651746 L29.8296112,50.0651746 L29.7833256,50.2090579 L29.8996181,50.2090579 L29.8996181,50.3529412 L29.5142907,50.3529412 L29.5142907,50.2090579 L29.6219047,50.2090579 L29.7914256,49.6498241 L29.6751331,49.6498241 L29.6751331,49.5059408 L30.2456029,49.5059408 Z M33.647651,48.0669451 C33.6815938,48.0669451 33.7124508,48.0736896 33.7402222,48.0871787 L33.7782631,48.1121896 L33.7782631,48.1121896 L33.809072,48.1467553 L33.809072,48.0764998 L33.9571858,48.0764998 L33.9571858,48.3327919 L33.809072,48.3327919 C33.8029006,48.2915753 33.7891113,48.2605692 33.7677042,48.2397736 C33.7462972,48.218978 33.7186222,48.2085802 33.6846795,48.2085802 C33.6607653,48.2085802 33.6403225,48.2151373 33.6233511,48.2282517 C33.6063797,48.2413661 33.597894,48.2578527 33.597894,48.2777116 C33.597894,48.2953223 33.603294,48.3104975 33.614094,48.3232371 C33.6248939,48.3359768 33.6387796,48.3467493 33.655751,48.3555547 L33.767415,48.4052956 C33.8441719,48.4375194 33.9021253,48.4753637 33.9412752,48.5188285 C33.9804251,48.5622932 34,48.6166241 34,48.6818212 C34,48.7593833 33.9770501,48.8207398 33.9311502,48.8658907 C33.8852503,48.9110415 33.8235362,48.933617 33.7460079,48.933617 C33.689308,48.933617 33.6420461,48.9181256 33.6042221,48.887143 L33.5695441,48.8509965 L33.5695441,48.9235002 L33.4214302,48.9235002 L33.4214302,48.6357336 L33.5695441,48.6357336 C33.5726298,48.6855682 33.5858405,48.7235062 33.6091761,48.7495476 C33.6325118,48.7755889 33.6640438,48.7886096 33.7037723,48.7886096 C33.7303865,48.7886096 33.7528543,48.7798043 33.7711757,48.7621935 C33.789497,48.7445828 33.7986577,48.7232252 33.7986577,48.6981205 C33.7986577,48.6726412 33.788147,48.6493164 33.7671257,48.628146 C33.7531114,48.6140325 33.73254,48.5998773 33.7054116,48.5856805 L33.659801,48.564354 C33.5737869,48.5276338 33.5113978,48.4881034 33.4726336,48.4457627 C33.4338695,48.4034221 33.4144874,48.3547116 33.4144874,48.2996313 C33.4144874,48.2565413 33.4247088,48.2171982 33.4451516,48.1816021 C33.4655944,48.1460059 33.4938479,48.1179974 33.5299121,48.0975765 C33.5659762,48.0771555 33.6052226,48.0669451 33.647651,48.0669451 Z M30.1765795,48.0764998 L30.1765795,48.4170985 L30.0296228,48.4170985 L30.0296228,48.2203831 L29.8942374,48.2203831 L29.8942374,48.7796169 L30.0244156,48.7796169 L30.0244156,48.9235002 L29.5355242,48.9235002 L29.5355242,48.7796169 L29.6680167,48.7796169 L29.6680167,48.2203831 L29.5355242,48.2203831 L29.5355242,48.4170985 L29.3874103,48.4170985 L29.3874103,48.0764998 L30.1765795,48.0764998 Z M30.9643601,48.0764998 L30.9643601,48.2203831 L30.8301319,48.2203831 L30.8301319,48.7796169 L30.9643601,48.7796169 L30.9643601,48.9235002 L30.4714187,48.9235002 L30.4714187,48.7796169 L30.602754,48.7796169 L30.602754,48.2203831 L30.4714187,48.2203831 L30.4714187,48.0764998 L30.9643601,48.0764998 Z M27.8778061,48.0764998 L27.8778061,48.3445948 L27.7105994,48.3445948 L27.7105994,48.2203831 L27.4404073,48.2203831 L27.4404073,48.4148503 L27.6585281,48.4148503 L27.6585281,48.5576095 L27.4404073,48.5576095 L27.4404073,48.7796169 L27.7105994,48.7796169 L27.7105994,48.6542811 L27.8778061,48.6542811 L27.8778061,48.9235002 L27.1088868,48.9235002 L27.1088868,48.7796169 L27.2141865,48.7796169 L27.2141865,48.2203831 L27.1088868,48.2203831 L27.1088868,48.0764998 L27.8778061,48.0764998 Z M26.7891692,48.0764998 L26.7891692,48.4170985 L26.6422125,48.4170985 L26.6422125,48.2203831 L26.5068271,48.2203831 L26.5068271,48.7796169 L26.6370053,48.7796169 L26.6370053,48.9235002 L26.1481139,48.9235002 L26.1481139,48.7796169 L26.2806063,48.7796169 L26.2806063,48.2203831 L26.1481139,48.2203831 L26.1481139,48.4170985 L26,48.4170985 L26,48.0764998 L26.7891692,48.0764998 Z M31.7208979,48.0764998 L31.7208979,48.2203831 L31.593034,48.2203831 L31.593034,48.7796169 L31.8504976,48.7796169 L31.8504976,48.5182664 L32.0211757,48.5182664 L32.0211757,48.9235002 L31.2412636,48.9235002 L31.2412636,48.7796169 L31.3656561,48.7796169 L31.3656561,48.2203831 L31.2412636,48.2203831 L31.2412636,48.0764998 L31.7208979,48.0764998 Z M28.6146725,48.0764998 L28.6146725,48.2108283 L28.5319371,48.2108283 L28.6621153,48.3698868 L28.7784078,48.2108283 L28.7003009,48.2108283 L28.7003009,48.0764998 L29.0879426,48.0764998 L29.0879426,48.2203831 L28.9670215,48.2203831 L28.759315,48.4974708 L28.9884286,48.7796169 L29.1128211,48.7796169 L29.1128211,48.9235002 L28.6505439,48.9235002 L28.6505439,48.7863614 L28.7379079,48.7863614 L28.6007869,48.6115657 L28.4706087,48.7863614 L28.560287,48.7863614 L28.560287,48.9235002 L28.1587595,48.9235002 L28.1587595,48.7796169 L28.2866235,48.7796169 L28.4989586,48.4884781 L28.2866235,48.2203831 L28.1657024,48.2203831 L28.1657024,48.0764998 L28.6146725,48.0764998 Z M33.0837769,48.0764998 L33.0837769,48.3445948 L32.9165702,48.3445948 L32.9165702,48.2203831 L32.6463782,48.2203831 L32.6463782,48.4148503 L32.864499,48.4148503 L32.864499,48.5576095 L32.6463782,48.5576095 L32.6463782,48.7796169 L32.9165702,48.7796169 L32.9165702,48.6542811 L33.0837769,48.6542811 L33.0837769,48.9235002 L32.3148577,48.9235002 L32.3148577,48.7796169 L32.4201574,48.7796169 L32.4201574,48.2203831 L32.3148577,48.2203831 L32.3148577,48.0764998 L33.0837769,48.0764998 Z M30.5678899,46.0609524 L30.5678899,46.792381 L31.1850917,46.792381 L31.1850917,46.0609524 L31.6,46.0609524 L31.6,47.92 L31.1850917,47.92 L31.1850917,47.1865397 L30.5678899,47.1865397 L30.5678899,47.92 L30.0848624,47.92 L30.0848624,46.0609524 L30.5678899,46.0609524 Z M28.9639908,46 C29.2887615,46 29.5792813,46.1412691 29.7587128,46.3809984 L29.837156,46.503873 L29.4759174,46.7212698 L29.4594037,46.6907937 C29.3520642,46.4937143 29.191055,46.3982222 28.9681193,46.3982222 C28.6605505,46.3982222 28.412844,46.648127 28.412844,46.9549206 C28.412844,47.271873 28.656422,47.5095873 28.9784404,47.5095873 C29.1695282,47.5095873 29.3242183,47.4259955 29.4100128,47.2792833 L29.4470183,47.2007619 L28.8896789,47.2007619 L28.8896789,46.8066032 L29.903211,46.8066032 L29.903211,46.9772698 C29.903211,47.5075556 29.5048165,47.9078095 28.9784404,47.9078095 C28.4211009,47.9078095 28,47.4973968 28,46.9549206 C28,46.4104127 28.4149083,46 28.9639908,46 Z M49,42 L49,43 L11,43 L11,42 L49,42 Z M33.908046,16 C34.5111155,16 35,16.5087673 35,17.1363636 C35,17.7639599 34.5111155,18.2727273 33.908046,18.2727273 C33.3049764,18.2727273 32.816092,17.7639599 32.816092,17.1363636 C32.816092,16.5087673 33.3049764,16 33.908046,16 Z M31.2340527,16 C31.4523364,16 31.6354463,16.0646593 31.7833827,16.193978 C31.9323535,16.3232967 32.0068389,16.4834974 32.0068389,16.6745802 C32.0068389,16.7961783 31.9721825,16.9153638 31.9028697,17.0321367 C31.867696,17.0929357 31.8162287,17.1650743 31.7484676,17.2485524 L31.5891516,17.4357749 L31.5891516,17.4357749 L31.4916481,17.544586 L31.1824687,17.9138756 L32.0114943,17.9138756 L32.0114943,18.2727273 L30.4022989,18.2727273 L31.2340527,17.3332368 L31.4396635,17.0900405 L31.4396635,17.0900405 L31.4906136,17.0252204 L31.4906136,17.0252204 L31.5661335,16.9177765 L31.5661335,16.9177765 C31.6251011,16.8270604 31.654585,16.7455124 31.654585,16.6731326 C31.654585,16.5689056 31.6152732,16.4815673 31.5366497,16.4111175 C31.4580262,16.3406678 31.3607814,16.305443 31.2449152,16.305443 C31.0330972,16.305443 30.9004847,16.4077775 30.8470777,16.6124466 L30.8290382,16.7064273 L30.4690254,16.7064273 C30.5269585,16.2354758 30.7819676,16 31.2340527,16 Z M28.5057471,16 C29.1088167,16 29.5977011,16.5087673 29.5977011,17.1363636 C29.5977011,17.7639599 29.1088167,18.2727273 28.5057471,18.2727273 C27.9026776,18.2727273 27.4137931,17.7639599 27.4137931,17.1363636 C27.4137931,16.5087673 27.9026776,16 28.5057471,16 Z M25.8317538,16 C26.0500375,16 26.2331475,16.0646593 26.3810838,16.193978 C26.5300546,16.3232967 26.6045401,16.4834974 26.6045401,16.6745802 C26.6045401,16.7961783 26.5698837,16.9153638 26.5005708,17.0321367 C26.4653972,17.0929357 26.4139298,17.1650743 26.3461688,17.2485524 L26.2724592,17.3370971 L26.2724592,17.3370971 L26.0893493,17.544586 L25.7801698,17.9138756 L26.6091954,17.9138756 L26.6091954,18.2727273 L25,18.2727273 L25.9090842,17.2438075 L25.9090842,17.2438075 L26.0373646,17.0900405 L26.0373646,17.0900405 L26.0883147,17.0252204 L26.0883147,17.0252204 L26.1638347,16.9177765 L26.1638347,16.9177765 C26.2228023,16.8270604 26.2522861,16.7455124 26.2522861,16.6731326 C26.2522861,16.5689056 26.2129744,16.4815673 26.1343509,16.4111175 C26.0557274,16.3406678 25.9584825,16.305443 25.8426163,16.305443 C25.6307984,16.305443 25.4981859,16.4077775 25.4447788,16.6124466 L25.4267394,16.7064273 L25.0667265,16.7064273 C25.1246596,16.2354758 25.3796687,16 25.8317538,16 Z M19.0384615,17 L19.0384615,18 L11,18 L11,17 L19.0384615,17 Z M49,17 L49,18 L40.9615385,18 L40.9615385,17 L49,17 Z M33.908046,16.3588517 C33.4954194,16.3588517 33.1609195,16.7069556 33.1609195,17.1363636 C33.1609195,17.5657716 33.4954194,17.9138756 33.908046,17.9138756 C34.3206725,17.9138756 34.6551724,17.5657716 34.6551724,17.1363636 C34.6551724,16.7069556 34.3206725,16.3588517 33.908046,16.3588517 Z M28.5057471,16.3588517 C28.0931206,16.3588517 27.7586207,16.7069556 27.7586207,17.1363636 C27.7586207,17.5657716 28.0931206,17.9138756 28.5057471,17.9138756 C28.9183737,17.9138756 29.2528736,17.5657716 29.2528736,17.1363636 C29.2528736,16.7069556 28.9183737,16.3588517 28.5057471,16.3588517 Z M49.382716,0.625 L10.617284,0.625 L10.617284,13.375 L49.382716,13.375 L49.382716,0.625 Z" id="Shape" fill="#000000" fill-rule="nonzero"></path>
            <path d="M42.4380394,35.3439674 C42.9544928,35.3439674 43.3875985,35.4691004 43.8450983,35.7593266 L44.090498,35.9202905 L43.5384871,36.8609855 L43.3195486,36.7230473 C43.012445,36.5295623 42.7594167,36.4489886 42.4738753,36.4489886 C42.2023249,36.4489886 42.0478264,36.5436651 42.0478264,36.657409 C42.0478264,36.7789441 42.1530602,36.8722051 42.4476688,36.990176 L42.7054477,37.0841152 L42.7054477,37.0841152 C43.6314371,37.3786226 44.1322806,37.8175762 44.1322806,38.5626859 C44.1322806,39.4323765 43.4081492,40 42.4380394,40 C41.8493716,40 41.2809087,39.818575 40.840107,39.4906678 L40.6252109,39.3236047 L41.2176949,38.3448127 L41.4419096,38.5358575 C41.7055925,38.7605316 42.0553979,38.8890801 42.4141488,38.8890801 C42.7344715,38.8890801 42.9238148,38.766425 42.9238148,38.598078 C42.9238148,38.4535804 42.7860842,38.3460696 42.3976453,38.2080553 L42.2178705,38.1476041 C41.3460735,37.8681561 40.833388,37.4017018 40.833388,36.6928011 C40.833388,35.8706582 41.5283506,35.3439674 42.4380394,35.3439674 Z M21.4060756,35.4206503 L22.3350116,37.4944556 L23.4124145,35.6808972 L24.4903656,37.4944556 L25.4193016,35.4206503 L26.7267593,35.4206503 L24.5671733,39.9469118 L23.412663,37.9050948 L22.2582039,39.9469118 L20.0986178,35.4206503 L21.4060756,35.4206503 Z M18.2005362,35.3970556 L20.4718106,39.923317 L19.3250165,39.923317 L18.9905433,39.1977782 L17.4114001,39.1977782 L17.0770513,39.923317 L15.9456003,39.923317 L18.2005362,35.3970556 Z M28.578,35.398 L30.8002154,39.923317 L29.7054787,39.923317 L29.3710055,39.1977782 L27.7918623,39.1977782 L27.4575135,39.923317 L26.3924695,39.923317 L28.578,35.398 Z M37.7435381,35.4206503 C39.101387,35.4206503 40.0649073,36.3644396 40.0649073,37.6778824 C40.0649073,38.9213474 39.2177638,39.8216705 37.9674386,39.9152619 L37.7495108,39.923317 L36.0433243,39.923317 L36.0433243,35.4206503 L37.7435381,35.4206503 Z M33.4372589,35.4206503 C34.3703558,35.4206503 35.0658009,36.0570741 35.0658009,36.9169514 C35.0658009,37.4598368 34.7826569,37.9122427 34.3105788,38.1684998 L34.2540185,38.1977044 L35.4545743,39.923317 L33.9720847,39.923317 L33.0240263,38.401455 L32.7961947,38.401455 L32.7961947,39.923317 L31.5937016,39.923317 L31.5937016,35.4206503 L33.4372589,35.4206503 Z M37.7136749,36.5138742 L37.2458174,36.5138742 L37.2458174,38.8299703 L37.7196475,38.8300932 C38.4154305,38.8300932 38.8504689,38.377545 38.8504689,37.6778824 C38.8504689,37.0349161 38.4784681,36.5923831 37.881336,36.5233201 L37.7136749,36.5138742 Z M28.5809984,37.5625651 L28.252005,38.2810993 L28.9108628,38.2810993 L28.5809984,37.5625651 Z M18.2005362,37.5625651 L17.8715428,38.2810993 L18.5304006,38.2810993 L18.2005362,37.5625651 Z M33.3775324,36.5138742 L32.7961947,36.5138742 L32.7961947,37.3318259 L33.3655871,37.3318259 C33.6942072,37.3318259 33.8573352,37.1868287 33.8573352,36.9287487 C33.8573352,36.7185668 33.7207754,36.5629935 33.4946578,36.5236068 L33.3775324,36.5138742 Z M49.3819893,27.3733625 C50.3175099,27.3733625 51.1213283,27.7040374 51.7445928,28.3175024 L51.9418028,28.5174812 L51.0756391,29.544007 L50.882968,29.3571814 C50.4545329,28.9417448 49.997815,28.7507066 49.4158343,28.7507066 C48.3408537,28.7507066 47.6424556,29.4778527 47.6424556,30.5689778 C47.6424556,31.6730977 48.3634808,32.3956055 49.4496793,32.3956055 C49.8867579,32.3956055 50.2623369,32.2752021 50.5522176,32.0452332 L50.6138479,31.9932657 L50.6138479,31.2910758 L49.0739002,31.2910758 L49.0739002,29.9805835 L52,29.9805835 L52,32.5627313 L51.9429003,32.6309074 C51.3233425,33.3706501 50.4288078,33.7645931 49.3650668,33.7645931 C47.4806212,33.7645931 46.1293847,32.4059227 46.1293847,30.5606213 C46.1293847,28.7255157 47.4606855,27.3733625 49.3819893,27.3733625 Z M38.8606721,27.4485708 L42.8042374,30.5474904 L42.8036153,27.4819967 L44.2913023,27.4819967 L44.2913023,33.6893848 L40.3483592,30.6123395 L40.3483592,33.6559589 L38.8606721,33.6559589 L38.8606721,27.4485708 Z M10.5418594,27.4819967 C11.6877833,27.4819967 12.5252763,28.192583 12.5252763,29.2152285 C12.5252763,29.6689228 12.3601945,30.0659196 12.0649428,30.3695887 L12.0307908,30.4035687 L12.0481263,30.4160512 C12.4684147,30.7256768 12.7258336,31.1981449 12.7515934,31.7475761 L12.7537301,31.8391624 C12.7537301,32.9060448 11.9206624,33.6379385 10.7462742,33.6556309 L8,33.6559589 L8,27.4819967 L10.5418594,27.4819967 Z M18.685565,27.4819967 L18.685565,28.8426279 L16.0624526,28.8426279 L16.0624526,29.8552363 L18.3555762,29.8552363 L18.3555762,31.190798 L16.0624526,31.190798 L16.0624526,32.2953277 L18.7617162,32.2953277 L18.7617162,33.6559589 L14.5664287,33.6559589 L14.5664287,27.4819967 L18.685565,27.4819967 Z M22.8624368,27.4819967 C24.7289788,27.4819967 26.0473513,28.7733716 26.0473513,30.5773343 C26.0473513,32.3647359 24.7786201,33.6304423 22.9271799,33.6555777 L20.5574924,33.6559589 L20.5574924,27.4819967 L22.8624368,27.4819967 Z M30.1903782,27.4819967 C32.0569202,27.4819967 33.3752927,28.7733716 33.3752927,30.5773343 C33.3752927,32.3647359 32.1065614,33.6304423 30.2551213,33.6555777 L27.8854338,33.6559589 L27.8854338,27.4819967 L30.1903782,27.4819967 Z M36.7095234,27.4819967 L36.7095234,33.6559589 L35.2133751,33.6559589 L35.2133751,27.4819967 L36.7095234,27.4819967 Z M10.6077062,31.1327588 L9.48756264,31.1323027 L9.48756264,32.3538231 L10.5418594,32.3538231 C10.9870599,32.3538231 11.2491205,32.1226796 11.2491205,31.7388847 C11.2491205,31.3738897 11.0088467,31.144293 10.6077062,31.1327588 Z M22.8201305,28.8259149 L22.0536407,28.8259149 L22.0536407,32.3120407 L22.8285918,32.3120407 C23.8727903,32.3120407 24.5342805,31.6239263 24.5342805,30.5773343 C24.5342805,29.5973091 23.9475003,28.9193666 23.0198974,28.8348419 L22.8201305,28.8259149 Z M30.1480719,28.8259149 L29.3815821,28.8259149 L29.3815821,32.3120407 L30.1565331,32.3120407 C31.2007317,32.3120407 31.8622219,31.6239263 31.8622219,30.5773343 C31.8622219,29.5973091 31.2754417,28.9193666 30.3478387,28.8348419 L30.1480719,28.8259149 Z M10.406698,28.7845767 L9.48756264,28.7841325 L9.48756264,29.8385234 L10.3895569,29.8385234 C10.8192622,29.8385234 11.0206667,29.6551306 11.0206667,29.2904367 C11.0206667,28.9853964 10.7992314,28.7949232 10.406698,28.7845767 Z M33.3085981,20 C33.9448712,20 34.4872213,20.1371597 35.0462461,20.4524902 L35.3165775,20.6178754 L35.5110381,20.7459105 L34.8321084,21.9028907 L34.6131699,21.7649526 C34.1622065,21.4808313 33.7847376,21.3606312 33.3593656,21.3606312 C32.9246909,21.3606312 32.6521046,21.5276717 32.6521046,21.7583012 C32.6521046,22.0011642 32.8557915,22.1664108 33.3921208,22.3672129 L33.6556417,22.4602796 C34.9295195,22.8654316 35.6050813,23.4575132 35.6050813,24.4574434 C35.6050813,25.6270757 34.6302298,26.3912306 33.3085981,26.3912306 C32.4924526,26.3912306 31.7050575,26.1385318 31.0975581,25.6830496 L30.8761073,25.5108389 L31.6054645,24.3059305 L31.8296792,24.4969753 C32.2220502,24.8312997 32.7416444,25.022243 33.2747531,25.022243 C33.7789061,25.022243 34.1004717,24.8139353 34.1004717,24.5075823 C34.1004717,24.253807 33.8904259,24.0792939 33.3481145,23.8804284 L33.1016302,23.7955663 L33.0287027,23.772005 C31.8315183,23.3882566 31.1390337,22.7582165 31.1390337,21.80844 C31.1390337,20.7071007 32.072045,20 33.3085981,20 Z M41.4861487,20.1086342 L41.4861487,21.5110478 L39.861464,21.5109249 L39.8615884,26.2825964 L38.3654401,26.2825964 L38.3654401,21.5109249 L36.7324186,21.5110478 L36.7324186,20.1086342 L41.4861487,20.1086342 Z M21.3180096,20.1086342 C22.4639334,20.1086342 23.3014264,20.8192205 23.3014264,21.841866 C23.3014264,22.2955603 23.1363446,22.6925571 22.841093,22.9962262 L22.8069409,23.0302062 L22.8242764,23.0426887 C23.2445648,23.3523143 23.5019837,23.8247824 23.5277436,24.3742136 L23.5298802,24.4657999 C23.5298802,25.5326823 22.6968125,26.264576 21.5224243,26.2822684 L18.7761501,26.2825964 L18.7761501,20.1086342 L21.3180096,20.1086342 Z M29.4617151,20.1086342 L29.4617151,21.4692654 L26.8387272,21.4691425 L26.8387272,22.4818738 L29.1317263,22.4818738 L29.1317263,23.8174355 L26.8387272,23.8174355 L26.8387272,24.9219652 L29.5378664,24.9219652 L29.5378664,26.2825964 L25.3425789,26.2825964 L25.3425789,20.1086342 L29.4617151,20.1086342 Z M21.3518546,23.7589402 L20.2637128,23.7589402 L20.2637128,24.9804606 L21.3180096,24.9804606 C21.76321,24.9804606 22.0252706,24.7493171 22.0252706,24.3655222 C22.0252706,24.0370267 21.8306488,23.8182038 21.4992931,23.7693157 L21.3518546,23.7589402 Z M21.1487845,21.41077 L20.2637128,21.4106471 L20.2637128,22.4651609 L21.165707,22.4651609 C21.5954123,22.4651609 21.7968169,22.2817681 21.7968169,21.9170742 C21.7968169,21.6425379 21.6174542,21.460801 21.2954248,21.4196564 L21.1487845,21.41077 Z M41.2928816,6.88562725 L42.5511541,8.76686942 L42.5511541,6.88559322 L43.2756184,6.88559322 L43.2756184,10 L42.5386024,10 L41.2368678,8.0529768 L41.2368678,10 L40.5123675,10 L40.5123675,6.88562725 L41.2928816,6.88562725 Z M13.7337373,6.88559322 L13.7337373,8.11103289 L14.9196389,8.11103289 L14.9196389,6.88559322 L15.6431095,6.88559322 L15.6431095,10 L14.9196389,10 L14.9196389,8.7704086 L13.7337013,8.7704086 L13.7337013,10 L13,10 L13,6.88559322 L13.7337373,6.88559322 Z M35.7067138,6.88559322 L35.7067138,7.5448256 L34.4022239,7.5448256 L34.4022239,8.10700395 L35.7067138,8.10700395 L35.7067138,8.76616826 L34.4022239,8.76616826 L34.4022239,9.34080165 L35.7067138,9.34080165 L35.7067138,10 L33.664311,9.99996597 L33.664311,6.88559322 L35.7067138,6.88559322 Z M33.1837088,6.88559322 L33.1837088,7.5448256 L31.8792792,7.5448256 L31.8792792,8.10700395 L33.1837088,8.10700395 L33.1837088,8.76616826 L31.8792792,8.76616826 L31.8792792,9.34080165 L33.1837456,9.34080165 L33.1837456,10 L31.1413428,9.99996597 L31.1413428,6.88559322 L33.1837088,6.88559322 Z M20.6891536,6.88559322 L20.6891536,8.91361027 C20.6891536,9.17122688 20.8929004,9.36553093 21.1631511,9.36553093 C21.4058943,9.36553093 21.601876,9.20866292 21.6424055,8.99584327 L21.6501049,8.91361027 L21.6501049,6.88559322 L22.3710247,6.88559322 L22.3710247,8.87716777 C22.3710247,9.56977691 21.9098399,10 21.1674579,10 C20.4770469,10 20.0307144,9.62522788 19.9742719,9.01214139 L19.9681979,8.87716777 L19.9681979,6.88559322 L20.6891536,6.88559322 Z M17.8035135,6.88559322 C18.732153,6.88559322 19.4876325,7.58414896 19.4876325,8.44284634 C19.4876325,9.30144426 18.732153,10 17.8035135,10 C16.8772121,10 16.1236749,9.30147741 16.1236749,8.44284634 C16.1236749,7.58418212 16.8772121,6.88559322 17.8035135,6.88559322 Z M39.9116608,6.88562725 L39.9116608,10 L39.1908127,10 L39.1908127,6.88559322 L39.9116608,6.88562725 Z M23.9281495,6.88559322 C24.4499527,6.88559322 24.7576944,7.06635938 24.983323,7.26157663 L25.1029292,7.37138418 L24.4908527,7.79219082 L24.4554557,7.7438836 C24.3309822,7.57429441 24.1599453,7.49180411 23.932565,7.49180411 C23.69785,7.49180411 23.5519559,7.59514907 23.5519559,7.76162167 C23.5519559,7.88277101 23.6678286,7.95235355 23.8675065,8.02202468 L24.3311621,8.16566431 C24.6874018,8.28133926 25.1342756,8.48995761 25.1342756,9.0317336 C25.1342756,9.66062269 24.5287311,10 23.9589851,10 C23.492604,10 23.1033224,9.8595592 22.7740198,9.57152881 L22.6533095,9.45658519 L22.6113074,9.41325125 L23.2753847,8.93780474 L23.3102343,8.99234515 C23.4585734,9.22453148 23.693398,9.35761672 23.9545696,9.35761672 C24.2432925,9.35761672 24.3747723,9.18660185 24.3747723,9.02768866 C24.3747723,8.8819639 24.2150798,8.80523484 24.0002924,8.73842502 L23.5719822,8.61551283 C23.2023833,8.50179877 22.7969046,8.31306953 22.7969046,7.78178007 C22.7969046,7.27085741 23.2831939,6.88559322 23.9281495,6.88559322 Z M28.9893356,6.88559322 L28.9893356,7.99110928 L29.9385158,6.88559322 L30.8364972,6.88559322 L29.7713733,8.11542283 L30.9010601,9.99996597 L30.0680057,9.99996597 L29.2541418,8.60947819 L28.9893356,8.91891787 L28.9893356,10 L28.2579505,10 L28.2579505,6.88559322 L28.9893356,6.88559322 Z M27.6572438,6.88559322 L27.6572438,7.5448256 L26.3527539,7.5448256 L26.3527539,8.10700395 L27.6572438,8.10700395 L27.6572438,8.76616826 L26.3527539,8.76616826 L26.3527539,9.34080165 L27.6572438,9.34080165 L27.6572438,10 L25.614841,9.99996597 L25.614841,6.88559322 L27.6572438,6.88559322 Z M37.4822445,6.88559322 C38.1708507,6.88559322 38.7102473,7.38172986 38.7102473,8.01507912 C38.7102473,8.60884405 38.2344564,9.08201195 37.6054687,9.13883855 L37.4777241,9.14456502 L37.0456776,9.14456502 L37.0456776,10 L36.3074205,10 L36.3074205,6.88559322 L37.4822445,6.88559322 Z M45.3400603,6.88559322 C45.9335262,6.88559322 46.459079,7.12964621 46.7747857,7.54514688 L46.8555781,7.66266147 L46.8842217,7.70881409 L46.2427155,8.06258455 L46.2126489,8.01212169 C46.0215215,7.69167263 45.7374942,7.53584122 45.344439,7.53584122 C44.8041522,7.53584122 44.3645009,7.94269383 44.3645009,8.44284634 C44.3645009,8.95984191 44.7952489,9.349752 45.3664781,9.349752 C45.7189094,9.349752 45.9988896,9.20218411 46.146887,8.94682126 L46.196083,8.84608498 L45.2093581,8.84608498 L45.2093581,8.20376117 L47,8.20376117 L47,8.48289833 C47,9.34782897 46.2977038,10 45.3664781,10 C44.3799721,10 43.6360424,9.33055489 43.6360424,8.44284634 C43.6360424,7.55507148 44.3685512,6.88559322 45.3400603,6.88559322 Z M17.8035015,7.5529661 C17.2746734,7.5529661 16.844523,7.95218443 16.844523,8.44287867 C16.844523,8.93350726 17.2746734,9.33262712 17.8035015,9.33262712 C18.3346612,9.33262712 18.7667845,8.93347444 18.7667845,8.44287867 C18.7667845,7.95215161 18.3346612,7.5529661 17.8035015,7.5529661 Z M37.4370892,7.5529661 L37.0282686,7.5529661 L37.0282686,8.55402542 L37.4370892,8.55402542 C37.7572106,8.55402542 37.9893993,8.34355239 37.9893993,8.05349576 C37.9893993,7.79572987 37.8059113,7.60073423 37.5403316,7.56058416 L37.4370892,7.5529661 Z M35.3031263,3 C36.3350308,3 37.0282686,3.62580792 37.0282686,4.55720339 C37.0282686,5.41198167 36.3868691,6.04478088 35.4821597,6.10902351 L35.3290016,6.11440678 L34.385159,6.11440678 L34.385159,3 L35.3031263,3 Z M28.4960391,3 C29.4246686,3 30.180212,3.69854087 30.180212,4.55721997 C30.180212,5.41583276 29.4246686,6.11440678 28.4960391,6.11440678 C27.5697835,6.11440678 26.8162544,5.4157996 26.8162544,4.55721997 C26.8162544,3.69857402 27.5697835,3 28.4960391,3 Z M32.2203847,3 C33.1490341,3 33.9045936,3.69854087 33.9045936,4.55721997 C33.9045936,5.41583276 33.1490341,6.11440678 32.2203847,6.11440678 C31.2941812,6.11440678 30.540636,5.4157996 30.540636,4.55721997 C30.540636,3.69857402 31.2941453,3 32.2203847,3 Z M24.7959082,3 C25.3893548,3 25.9148291,3.24404779 26.2306278,3.65953962 L26.3114497,3.7770517 L26.3400923,3.8232365 L25.698534,4.17706573 L25.6684684,4.1265708 C25.4773473,3.80606225 25.1933292,3.65030047 24.8002867,3.65030047 C24.2600175,3.65030047 23.8204536,4.0570781 23.8204536,4.55721997 C23.8204536,5.07423769 24.2511511,5.46413947 24.8223251,5.46413947 C25.1747449,5.46413947 25.4546872,5.31654853 25.6027503,5.06123186 L25.6519761,4.96051633 L24.6652103,4.96051633 L24.6652103,4.3182062 L26.4558304,4.3182062 L26.4558304,4.59723795 C26.4558304,5.46221648 25.7535935,6.11440678 24.8223251,6.11440678 C23.8358148,6.11440678 23.0918728,5.44490962 23.0918728,4.55721997 C23.0918728,3.66946401 23.8245037,3 24.7959082,3 Z M35.2363798,3.66737288 L35.1060071,3.66737288 L35.1060071,5.4470339 L35.2621272,5.4470339 C35.8873188,5.4470339 36.3074205,5.08937966 36.3074205,4.55720339 C36.3074205,4.03204301 35.9708248,3.71492866 35.3777577,3.672306 L35.2363798,3.66737288 Z M28.4960452,3.66737288 C27.9672887,3.66737288 27.5371025,4.0665182 27.5371025,4.55720339 C27.5371025,5.04785575 27.9672887,5.4470339 28.4960452,5.4470339 C29.0272049,5.4470339 29.459364,5.04785575 29.459364,4.55717057 C29.459364,4.06655102 29.0272049,3.66737288 28.4960452,3.66737288 Z M32.2204268,3.66737288 C31.6916704,3.66737288 31.2614841,4.0665182 31.2614841,4.55720339 C31.2614841,5.04785575 31.6916704,5.4470339 32.2204268,5.4470339 C32.7515865,5.4470339 33.1837456,5.04785575 33.1837456,4.55717057 C33.1837456,4.06655102 32.7515865,3.66737288 32.2204268,3.66737288 Z" id="Shape" fill="#FFFFFF" fill-rule="nonzero"></path>
        </g>
    </g>
</svg>