<?xml version="1.0" encoding="utf-8"?>
<!-- Generator: Adobe Illustrator 22.1.0, SVG Export Plug-In . SVG Version: 6.00 Build 0)  -->
<svg version="1.1" id="Layer_1" xmlns="http://www.w3.org/2000/svg" xmlns:xlink="http://www.w3.org/1999/xlink" x="0px" y="0px"
	 viewBox="0 0 113 20" style="enable-background:new 0 0 113 20;" xml:space="preserve" aria-labelledby="googleStars">
<title id="googleStars">Google Stars</title>
<style type="text/css">
	.st0{fill:#6b6257;stroke:#6b6257;}
	.st1{fill:none;stroke:#6b6257;}
	.st2{fill:#E3E3E3;}
</style>
<g>
	<polygon id="Page-1-Copy" class="st0" points="10.5,2 8.5,8.1 2,8.1 7.3,11.9 5.2,18 10.5,14.2 15.8,18 13.7,11.9 19,8.1 12.5,8.1 
			"/>
	<polygon id="Page-1-Copy-2" class="st0" points="33.5,2 31.5,8.1 25,8.1 30.3,11.9 28.2,18 33.5,14.2 38.8,18 36.7,11.9 42,8.1 
		35.5,8.1 	"/>
	<polygon id="Page-1-Copy-3" class="st0" points="56.5,2 54.5,8.1 48,8.1 53.3,11.9 51.2,18 56.5,14.2 61.8,18 59.7,11.9 65,8.1 
		58.5,8.1 	"/>
	<polygon id="Page-1-Copy-4" class="st0" points="79.5,2 77.5,8.1 71,8.1 76.3,11.9 74.2,18 79.5,14.2 84.8,18 82.7,11.9 88,8.1 
		81.5,8.1 	"/>
	<polygon id="Page-1-Copy-8" class="st1" points="102.5,2 100.5,8.1 94,8.1 99.3,11.9 97.2,18 102.5,14.2 107.8,18 105.7,11.9 
		111,8.1 104.5,8.1 	"/>
	<polygon id="Page-1-Copy-7" class="st2" points="102.5,2 100.5,8.1 94,8.1 99.3,11.9 97.2,18 102.5,14.2 107.8,18 105.7,11.9 
		111,8.1 104.5,8.1 	"/>
	<polygon id="Page-1-Copy-6" class="st0" points="102.5,2 100.5,8.1 94,8.1 99.3,11.9 97.2,18 102.5,14.2 104.5,15.6 104.5,8.1 	"/>
</g>
</svg>
